<svg xmlns="http://www.w3.org/2000/svg" xml:space="preserve" id="Слой_1" x="0" y="0" style="enable-background:new 0 0 1399 2961.9" version="1.1" viewBox="0 0 1399 2961.9"><style>.st0{fill:#fff}</style><g id="pose_x2F_standing_x2F_walking-1"><path id="_xD83C__xDFA8_-Background" d="M1212.2 2835.5c7-32.8-25.1-43.8-45.4-51.1-14.5-9.4-68.4-42.1-110.1-82.4-34.1-33-57.3-75.2-67-79.3-6.6-3.8-10.3-7.2-11-10.1-6.1-25.1-1-48.5 0-63.7 19.4-5.1 34.9-11.4 46.6-20.3 3.4 1.1 8.5 2.6 10-2.4 10.5-70.1 15-139.4 23.6-209.5 32.4-267.2 36-579.3-19.7-823.3-.6-12.1.5-23 1.5-33.4 7.5-.8 12.1-8.1 18.2-12.5 9.5-7.6 20.8-13.4 20.4-26.7 2.3-1.7 2-2.7.9-4.9 7.3-31.3-25.2-64.3-34.4-90.1 16.7-163.2-6-317.4 6.6-480.6 16-6.7 5.2-48.5 4.1-65.8-8.6-111.1-66.4-221-170.5-257.4-5.9-1.2-14.9-8-19.8-3.4-9.5-3.8-22.2 3.7-29.5-4.9l.1-.1c-6.2-8.6-9-19.5-11-29.9.3 2.9.9 5.8 1.6 8.6-17.9-50.6-22.5-64.1-80.2-66.5-26-.3-60.3.4-75.5 25.2-6.2 11.5-4.3 24.8-8.2 36.9-7.1 22.3-37.7 11.5-53.7 23.1C481.3 552.4 376 636.5 341.3 771.5c-7.1 16.3-15.1 32.5-21 49.2-.9 2.5-3.4 10.9 2.6 14.8l2.9 1.9c-38.6 180.2-41.1 332 88.4 452.2 9.7 51.6-15.3 122.1-5.7 172.2-5.5 7.8 1.5 14 8.5 14.5.7.4 3.4 1.6 4.1 1.9-11.1 157.3 35.6 369.3 56.3 453 2.8 50.2-14.3 91.5-49.6 118.9-39 24-116 132.4-101.7 246.1-16.7 3.3-33.3 5.1-49.3 11.3-70.1-12.4-69.4 122.7-73.8 170.2-7.6 79.5-12.3 194.8 63.3 245.7 19.9 14.4 60.3 31.3 80.9 8.2 6.8-8.1 8.5-16 5.8-24.3 34.1-48.2 24.9-111.4 28.1-168 9.9-.6 20.3 4 29.8 2.4 9.8-8.7-26-6.3-29.8-6.8.4-8.7 1.1-17.9 2-26.7 5.6 1.1 12.8 3.8 18.2 4 3.2.8 5.5-3.6 3.5-5.9-4.2-4-15-3.4-21-4 1-7.4 2.3-15.1 3.7-22.2 7.4-.3 15.1 4.5 22.1 3.5-5.3-3.5-15.3-2.5-21.8-4.8 4.2-22.9 12.8-44.7 20.8-66.2 19.6 8.1 36.4 8.4 55.6 6 7.8 1.2 11.6-.4 12.9-10.2l-.5-.6c15.1-90.6 64-177 154.8-274.9 17.9-20.1 38.2-43.7 51.7-70.1 27.1-55 31.8-115.6 52.7-172.7 19.5-57.4 46.2-112.3 71.2-166.6 3.7 27.9 8.6 56.5 13.7 83.8 22.6 96.9 20.4 200.2 3.8 297.6-24.6 136.4-12.7 273.5-18.2 410.8.1 7.9 1.1 15.1-.1 23.4-.2.6.1 1.4.9 1.4h1.4c11.8 8.7 28.1 10.2 42 14.9 5.8 4.6 4.2 11.9 4.7 17.6 1.5 24.6 3.5 49.2 1.1 74.6-10.7 20.5-24 16.3-26.7 45.2-2.4 33-6.6 68.2 9.5 97.6l-6.1 1.1c-9 19-3.5 31.3 17.7 39.3 104.8 41.1 252.3 78.4 361.6 47.4 2 2 4.9-.1 7.1-3.2 2.2-3 3.8-6.9 3.4-9.2-1.9-10.1.7-28.5-10.6-30.3z" class="st0"/><path id="_xD83D__xDD8D_-Ink" d="M1217.2 2868.4c-94.2 42.3-265.2-11.1-357.7-41.9-24.9-9-33.3-10.8-26.3-39.5 13.1 25.2 41.2 31.3 68.2 36.4 91.3 20.8 184.4 59.2 282 40.5 14.3-2.3 28.5-10 32.7-24.3 2.6 6.1 1 14.3 2 21 .2 2.5.2 5.4-.9 7.8m-380.8-157.3c1.7-17 4.4-34.9 14.1-49.8-1.1 24.2 13.5 65.4 45.4 51.7 9-4.8 14.1-14.4 19.9-22.2 19.3-25.5 44.1-47.6 72-63.6 15.6 2.7 22.3 31.1 32.3 43-11.2 5-31.4 16.3-33.5 28.1 14-4.7 26.8-13.4 41.5-16.5 4.7 6.5 9.7 12.7 14.9 18.8-6.8 3-34.3 16.9-34.1 23.8 14.9-2.4 29.3-9.7 44.2-12.7 6.7 6.6 12.7 13.7 19.3 20.3-10 4.1-20.6 8.7-26 18.3-.3.4.4.9.7.5 7.5-9 20.4-10.7 31.6-12.7 17.1 16.1 36.3 30.4 57.8 41 21.5 11.8 54.2 14.4 62.7 39.9 6.8 25.5-14.5 28.2-34.2 30-19.9 2.8-40 3.3-59.7 1.6-61.8-2.6-120.3-20.8-178.7-36.7-71.6-13-94.8-23.7-90.2-102.8m20.9-149c-.2 1.1-.3 2.2-.5 3.4-.2-1.2-.3-2.4-.6-3.6.4 0 .7.1 1.1.2m115.4 56.9c-27.4 20.2-54.1 42.8-73.1 71-12.6 23-29.3 9-33.5-9.4-3.4-41.1-.5-76.6-4.4-117.9 37.9 5.2 76.7 2 113.7-7.1-4.4 18.4-6.5 25.5-6.6 44.4.2 6.2.1 13.8 3.9 19m61.3-1512.2c.8 60.5 1.2 121-.9 181.4-53.2-137.6-36.9-286.9-44.5-431.5 15.7-5.2 32.6-7.5 48.8-9.8-6.5 89.8-4.8 170-3.4 259.9m-300.8 305.5c-130.7-62.5-148.8-222.7-252.3-311-3.3-3.2-6.1-6.5-7.7-10.3 7.4-75 6.9-140.7 15.7-215.6 9.8-17.8 13.7-38.4 21-57.3 3.8-11.5 8.5-22.9 9.6-35 .9-4-5.3-5.7-6.5-2-13.8 26.8-20.7 56.7-31 85-1.5.6-3.4.1-4-1.4-.1.4-.2.7-.3 1.1-44.4-17.3-90.1-33.5-138.5-33.4 0-.2.1-.3.1-.5-3 .1-9.2-.1-7.4-4.5 42.5-155 118.8-261.2 280.6-311.6-20.6 120.3 280.5 127.3 276.4 15.3 113.4 48.7 162.3 185.6 149.4 300.9-10.8-2.9-38.8 8.5-49.8 15.2-2.2-46.8 3.3-103.3 0-145.1-17.3 213.4-49.5 468.7 57 662.3 6.9 13 18.2 25.4 17.9 40.6.8.8.9 2.3-.1 3.4v.2h-.2c-3.1 3.7-9.6 4.4-14.1 5.2-10.6 2.1-21.7 3.8-31.3 8.7-103 54.1-183.8-15.6-284.5-10.2m32.5 98.3c5 9.5 13.3 17.2 23.3 21.9-1.2 2.4-1.6 5.1-1.8 7.6-17.8 3.7-12.8 12.1-24.9 16.2-7.9 2.2-15.5 3.1-22.3 7.9-23.2 21.6-29 20-53.9 1 .3-1.7-33.6-34.8-44.1-53.3-8.8-15.4-17.9-31-31.3-42.9-65.7-67.2-135.6-130.7-199.2-199.8-127.4-127-103.1-270.9-73.8-429.5 47.2 5.6 94.7 17 137.3 37.8-15 70-16 133.4-22.4 204.5-2 8.8.3 25.7 12.7 21.8 114.3 90.8 127.6 277.4 277.7 331.3 61.2 24.9 35.4 45 55.6 92-11.1-2-21-11.4-25.8-20.3-2.5-4.5-9.4-.6-7.1 3.8m-345.6-55.1c-2.6-17.8-.6-35.5-.5-53.3-1.4-32.4-.3-64.1.9-96.6 35.9 37.2 73.1 73 109.8 109.5-39 4.9-83.9 8.9-110.2 40.4m-.7 26.2c.6-.2 1.2-.5 1.8-.8-.1 14 .1 27.9.6 41.9-1-13.7-1.8-27.4-2.4-41.1M375.6 2474c-10.5-.8-55.5-2.4-60.9 4.7 6.1 2.6 14.4 1.1 21 1.4 12.7.5 25.4 1.6 37.9 3.4-.9 4.9-1.8 9.8-2.5 14.7-12.7 1.2-37.4 1.8-45.4 10.6 14.4 2.3 29.3.2 43.7 3.1-.7 6.7-1.2 13.4-1.6 20.2-5.7.6-39.5 6.2-39.5 11.5 12.6 1.7 26-.5 38.9.7-2.8 40.3 6.7 162.1-48.5 169.6-48.2-2.5-69.3-80.6-75.9-118.1-14.5-87.3-12-180.4 16.8-264.5 10.3-23.4 38.3-27.5 61.9-28.7.9 4 1.8 7.9 2.8 11.8-10.3 23.3-13.5 49.4-13.8 74.6 2.2 36.2 46.8 63.1 79.2 39.2-6 14.8-10.7 30.2-14.1 45.8m-63.8 260.2c-95.5-20.5-111.1-131.1-104.5-212.3 5.3-56.6-1.1-175.9 51.1-209.1-67.5 61.6-61.6 481.1 88 407.9-3.8 11.8-23 15.2-34.6 13.5m18.7-394.4c.2-1.5.4-2.9.6-4.4 10.6 28.8 28.7 56.1 55.7 72.8-10.3 12.9-30.5 16.7-44.1 6.2-23.7-17.7-13.8-49.9-12.2-74.6M655.8 501.9c-.2.3-.4.7-.6 1-1.3.1-2.6.2-4 .4 1.6-.5 3.1-.9 4.6-1.4m181.4 10.6c-.1-.1-.1-.3-.1-.4.1.1.2.2.4.2-.1 0-.2.1-.3.2m389.3 2338.4c-.3-7.2-.4-16.4-8.7-18.9 3.8-30.8-21.8-48.4-48.7-56.9-22.9-14-48.9-23.8-70-40.7 9.8-1.8 19.6-4.1 28.3-8.3 6.6-3.2 3.4-13.9-3.7-12.9-12.6 1.7-23.9 8.1-35.7 12.5-6.7-5.5-13.2-11.3-19.4-17.4 7.7-1.5 17.4-.9 21.9-8.5 1.4-2.4.8-4.8-.9-6.7-7.8-7.9-23.1 0-32.8 2.3-4.6-5.3-9.1-10.8-13.5-16.3 7.3-.7 26.2.7 22.5-11.4-7.1-9.4-22.4-3.8-32.7-1.8-13-16-17.2-40.6-37.6-49.5-.7-3.9-5.8-3.6-9.2-2.4-5-23.8-4.6-35.9-3.1-60.4 15.1-4.2 30.1-9.7 42.7-18.7 5.8 1.7 12.8-.3 14-7 3.6-23.9 5.6-51.5 8.1-76h.9c4.8-44.6 8.6-89.3 14.1-133.8 31-257 37.8-570.7-19.7-824.6-.5-9.6.2-19.3 1.2-28.8 6.8-1.8 10.9-8.5 16.6-12.4 10.5-8.6 21.3-13.4 22.2-28.4 2.1-2 2.4-5.1 1.2-7.8 2.7-15.4-1.3-30.7-9.5-44-9-15.2-17.5-30.4-24.9-46.3 16.4-160.3-5.8-315.6 6.3-476.6 15.6-8.3 5.8-54.1 4.4-69.4-9.1-100.3-56-211.1-155.6-252.9-7-5.9-16.8-7.9-25.3-11.2-5.8-2.8-15.2-5.3-19.1 1.3-4.2-2-17.7-3.4-22.3-6.8-.9-.6-1.4-1.3-1.5-2.1-.3 0-.7-.1-1.2-.1-4.3-6-8.3-48-13.6-45-5.7 14.4-1.8 30.7 3.7 45.2 3.8 12.9 9 45.9 29 37.5 3.5-1.7 1.3-6.2-1.8-6.5-9.5-2.7-11.6-16.7-15.3-24.9 4.4 3.6 24.2 9 26.4 10.2 43.1 98.9-217.4 93.7-237.9 25.5-14.6-23.5-2-36.3 24-40.1-19.1 21.3 5.1 26 14.3 5.1 8.8-14.9 12.8-33.1 9.8-50.2 1.5-6 2.9-14.1-6.2-12.5-.3-.8-.8-.2-.6.4-3.3 5.2-1 12.8-2.2 18.8-1 9.9-3.8 19.6-8.6 28.4-8.9 1.7-17.7 3.5-26.4 5.5-5.3-10.7-39.4 10.6-48.5 13.1-121.7 36-214.2 131.7-246.5 252.4-7.2 16.1-15 32.2-20.9 48.8-2.6 7.2-2.6 16.1 4.6 20.7-35.3 162.1-44 330.9 89.5 452.5 3 13.2 1 27.1.9 40.5 1.1 30.5-25 135.1 5.3 148.7-8.9 135.5 24.3 319.9 56.5 450.6 2.4 44.9-11.2 85.8-47.6 114.1-69.3 51.8-98.5 138.4-106.7 220.8-1.1 8.4 0 17 1.9 25.3-15 2.8-29.1 4.6-43.7 10.1-80.5-15.4-74.7 157.5-80.9 208.8-4.8 75.8-1.8 166.8 67.9 216.4 23.4 16.7 64.8 32.7 87.6 7.4 6.5-7.7 10-16.8 7.4-26.6 32.7-47.9 25-109.2 27.4-163.7 8.6.3 17.9 4.1 26.4 2 6.5-1.7 7.3-10.1 1.8-13.4-7.9-4.5-18.7-2.8-27.6-3.1.3-5.2.7-10.4 1.2-15.7 8.4 2.1 20.5 7 23-4.8 1-10.7-12.5-11.6-21-12 .6-4 1.3-8.1 2-12.1 6.5.6 13.3 4.8 19.6 2.8 3.6-1.4 4.8-5.1 2.2-8-4.9-4.8-13.3-3.8-19.7-5.3 3.9-19.3 11-37.7 17.9-56.1 12.4 4.3 25.8 7.1 39 6.1 6.8-1.4 14.3-1.9 21.3-.9 7.7-2 9.5-10.3 10.5-17-.1-.2-.3-.5-.5-.7 17.8-103.6 81.6-193.1 153.2-270.2 19.7-22.1 39-45 52.4-71.2 27.2-54.8 32.1-116.4 52.9-173.3 17.5-51.7 41-101.2 63.9-150.8 9.2 65.3 26.4 129.6 28.4 195.9 3 83.8-15.5 166.4-23.4 249.6-11.4 87.9-5.3 176.3-6 264.5h.5c-.2 21.3-.8 43.4-2.1 64.6 0 7.8 1 15.1-.1 22.8-.6 4.3 2.5 7 5.7 7.1 11.9 7.8 26.9 10.6 40.5 13.9 3.8 2.9 2.2 10 2.8 14.4 1.5 24.6 3.4 43.1 1 67.8-13.4 19.8-23 16.6-26.7 46.7-2 31.4-6.6 65.3 7.2 93.8-6.1 1.4-8.5 20.1-7.5 25.1 1.6 14 13.9 18.4 25.8 23.2 87.1 32.6 272.2 86.4 361.7 49.4 6.4 3.6 13.6-3.5 15.6-9.2 3-6.6.5-13.4 0-20.3"/></g><g id="head_x2F_mono_x2F_Short-5"><path id="_xD83C__xDFA8_-Background_1_" d="M734.1 64.4c56.8 0 115.5 44 136.3 72.1 17.5 23.6 26.9 130.4 26.9 202.5 0 15.1 8.3 43.5 5.9 58-8.9 52.9-47.7 97.3-124.5 97.3s-131.9-30.4-188.9-112.2c-27.7 0-41.1-21.2-41.3-54.8-.1-22.3 8.8-37.6 26.7-45.7-6.4-88.2-1.5-143.8 14.6-166.7 24.2-34.4 87.5-50.5 144.3-50.5z" class="st0"/><path id="_xD83D__xDD8D_-Ink_1_" d="M710.2 45.7c35.9-3.6 71-.6 106.3 5.7 2.7.5 4.2 2.3 4.8 4.4 16.6.8 33.3 2 49.9 2.9 6 .3 9.5 6.3 6.7 11.7-.5 1.1-1.1 2.1-1.7 3.1l.7-.2c5-1.6 10.4-2.4 15.3.2 6.2 3.2 8.6 10.4 7.3 17-.4 1.7-.9 3.3-1.6 4.9 1.4-.1 2.7-.1 4.1.1 7.2 1 12.6 6.5 13 13.9.6 11.2-6.6 22.5-15.1 30.5 1.2 2.5 1.7 5.5 1.2 8.5-1 6-5.4 9.5-10.5 11.9 2.1 6.8 3.1 13.8 2.5 21-.2 2.4-2.3 4.4-4.5 4.9 8.3 22.8 12.5 47.3 15.5 71.2 2.2 17 3.2 34.1 3.3 51.2.1 7.7-.1 15.5-.4 23.2l-.1 2.9c-.4 8.4-.4 17.1-1.9 25.4 5.1 8.7 7.2 19.5 8 29.3 1.1 12.1-.6 24.5-4.4 36-14.4 43.4-57.8 70.8-101.4 77.9-40.3 6.6-87-2.3-110.6-38.9-.4-.6.4-1.1.9-.7 16.9 13.7 36.4 19.8 57.7 22.8 36.8 5.1 78.1-3.6 107.6-26.7 14.2-11.1 24.4-27.3 28.9-44.7 2.3-8.9 3.1-18.2 2.2-27.3-.9-9.3-5-17.2-7.6-26-.9-3 0-5.7 1.9-7.7.5-7.1 1.7-14.3 2.2-21.4.5-8.1.8-16.1.9-24.2.2-16.8-.5-33.6-1.9-50.2-2.6-30.6-9.4-60.4-13.5-90.7-1.5 1.3-3.6 1.9-5.9.7l-.2-.1-1.2-.7h-.2c-8.3.8-17-.3-25-2.8-8.4-2.6-16.1-6.6-23.1-11.9-1.3 6.7-1.9 13.4-1.9 20.3 0 4.3-4.5 6.5-8.1 4.7-15.9-8.1-31-17.4-45.4-27.8l-5.1 25.8c-.6 3.3-4.9 4.7-7.6 3.1-10.8-6.3-20.1-14.5-27.7-24.2-1.5 2.9-3 5.8-4.6 8.7l-2.3 4.3c-2.3 4.3-5.3 9-10.3 10.3-5.3 1.4-9.7-2-11.4-6.7l-1.5-4.5c-4.5 10.2-9.5 20.2-15.3 29.8-8.6 14.3-18.9 27.1-29.2 40.1-3.1 4-8.5.2-8.9-3.7-.3-2.3-.5-4.6-.6-6.8-6 12.1-12.2 24-19 35.7l1 3.8c2.8 11.3 5.1 22.6 7.7 34 .8 3.7-1.1 8.9-5.4 9.5-5.1.7-9.9 3.4-15.2 1.6-5.7-2-6.8-6.9-9.5-11.6-.5-.9-1.2-1.8-1.8-2.6l-.2.2c-.4.6-1.4 0-1.2-.7l.3-.7c-2.3-2.5-5.1-4.5-7.6-6.7-6-1-12.9.1-17 2.6-9.5 5.6-13.8 17.1-13.9 27.8-.1 12.4 3.7 26.4 10.2 37 2.9 4.7 6.8 8.9 12 11 5.1 2.1 10.7 1.4 15.9 3.4 3.5 1.3 5.6 5.1 3.5 8.6-.1.2-.3.5-.5.7l1.6 2.1c1.1 1.4 2.2 3 3.2 4.6 2.7 3.1 5.5 6 8.2 9 5 5.5 9.9 11.3 14.8 16.9 4.7 5.3 9.6 10.3 14.6 15.2 4.8 4.7 10.8 8.6 15.2 13.5 4.3 4.8 5.4 13.3-1.6 16.1-7.8 3.1-14.7-4.2-19.9-9l-.2-.2c-9.6-8.8-18.3-19-25.2-30.1-6.8 4.6-16.7 5.1-23.5.4-3.6-2.4-6.3-6.6-7.7-11-1.3.3-2.5.4-3.7.4-.6.4-1.3.7-1.9 1.1-5.1 2.6-11.3 1.5-13.6-4.2-2.1-5.1.1-10.9 2-15.8l.4-1c1.1-2.8 2.3-5.8 3.8-8.7-4.1-3.1-7.6-7-10.6-11.3-10-14.8-15-36.3-12.8-53.9 1.3-10.6 6.3-21.6 14.5-28.8l-.3-.8c-2.3-5.8-4.4-11.6-5.7-17.8-1.6-7.2-2.4-14.6-3.1-21.9-1.5-15.4-1.1-31.2.9-46.6 3.7-28.9 13.1-57.4 29.7-81.5-4.7-5.7-8.5-12.3-6.5-19.9.9-3.5 2.9-6.8 6-8.9 1.7-1.1 3.7-1.3 5.4-2.2l.5-.3c.7-.4.2-.4-.3-2.4-1.8-8-.3-15.8 8.5-18.5 8.3-2.5 16.2 2.8 21.1 9.2 12.9-9.2 29.9-13.9 44.8-18 16.9-5.1 34.4-8 51.9-9.8zM570.9 315.4c-.1-6.5 6.1-10.6 12.3-9.5 4.1.7 7.5 3.2 10.7 5.7l1.6 1.2c3.9 3.1 8.4 6.4 10.7 10.7 3.4 6.4-3.8 15.1-10.6 10.6-4.6-3.1-7.6-8.1-10.6-12.7l-.3-.5c-1.4-2.1-2.6-4.3-4.5-5.9l-.4-.4c-.6-.5-1.3-1-2.1-1.2-1.5-.4-4.4.2-5.1 2l-.1.2c-.2 1-1.6.8-1.6-.2z"/></g><g id="face_x2F_Smile"><path id="_xD83D__xDD8D_-Ink_2_" d="M795.1 406.1c-6.7-2.7-12.7-7.3-17.1-13.2-1.5-2-1.9-4.2-1.6-6.1.4-2.2 1.7-4.2 3.4-5.5 1.8-1.3 4-2 6.2-1.7 1.9.3 3.7 1.3 5.2 3.5l.3.4c2.6 3.5 6 6.4 9.9 8.3 3.7 1.8 7.9 2.6 12.2 2.1 8.2-.9 13.9-5.4 19.9-11.4.7-.8 1.5-1.5 2.2-2.3.5-.7 1.1-1.2 1.9-1.4.8-.3 1.7-.3 2.6 0 .8.3 1.5.8 2 1.5s.7 1.5.6 2.5c-.6 6.3-3.8 11.8-8.5 16.2-5.2 4.9-12 8.2-18.4 9.4-7 1.3-14.2.4-20.8-2.3zm24.3-96.6c7.6 4.6 19.1 15.3 10.9 26.7-9.6 10-23.3-1.5-30.1-6.7-6.3-4-13.4 6.3-7.5 11 49 36.3 68.9-29.8 30.5-36.4-4.2-.7-5.8 4-3.8 5.4zm-87.9-42.2c.8-10.4 16.6-12.7 18.2-2.5 1.4 9.2-.2 17.6-4.4 25.9-4 7.9-13.9 4.2-14.6-3-1-9.6.3-14 .8-20.4zm120.1-4.6c2.2-2.9 5.4-4.8 9.2-3.7 11.9 3.5 8.4 20.3 4.2 28.6-2.3 4.5-9.6 5.6-12.9 1.7-5.4-6.4-8-19.2-1.1-25.5.1-.4.3-.8.6-1.1zM745.1 222l1.9-.3c5.8-1 13-2 17.1 2.7 2.2 2.5 2.9 7.1 0 9.4-5.2 4.2-10.8 2.6-17 2.9-5.1.3-10 1.1-14.9 2.5-10.8 3.1-19.5 8.7-28.7 14.8-1.2.8-2.4-.7-1.9-1.9 5.3-10.4 15.6-18.9 25.9-24.1 5.5-2.7 11.6-5 17.6-6zm95.6-4.7 1.4.3c15.6 3.3 36 9.8 43.4 25.2.3 2.2 0 2.6-.3 2.9l-.1.1c-.2.3-.4.6-1.3.9-.3-.1-.5-.1-.8-.2-3.4-.9-6.1-2.1-8.7-3.4l-2.8-1.4c-3.3-1.6-6.6-3.1-10.1-4.3-7.5-2.4-15.1-4.1-22.9-5.1-1.7-.2-3.3-.8-4.6-1.7-1.2-.9-2.1-2.2-2.6-3.9-.5-2.2-.4-3.9.8-5.9.9-1.5 2.2-2.5 3.6-3.1 1.6-.6 3.3-.7 5-.4z"/></g></svg>