<?xml version="1.0" encoding="utf-8"?>
<!-- Generator: Adobe Illustrator 22.0.0, SVG Export Plug-In . SVG Version: 6.00 Build 0)  -->
<svg version="1.1" id="Слой_1" xmlns="http://www.w3.org/2000/svg" xmlns:xlink="http://www.w3.org/1999/xlink" x="0px" y="0px"
	 viewBox="0 0 1000 1000" style="enable-background:new 0 0 1000 1000;" xml:space="preserve">
<style type="text/css">
	.st0{fill:#F7C90D;stroke:#292929;stroke-width:40;stroke-miterlimit:10;}
	.st1{fill:none;stroke:#292929;stroke-width:49;stroke-linecap:round;stroke-linejoin:round;}
</style>
<path class="st0" d="M499.5,944.8c-118.7,0-230.3-46.2-314.2-130.1S55.2,619.2,55.2,500.5s46.2-230.3,130.2-314.2
	c83.9-83.9,195.5-130.1,314.2-130.1s230.3,46.2,314.2,130.1s130.1,195.5,130.1,314.2s-46.2,230.3-130.1,314.2
	C729.8,898.6,618.2,944.8,499.5,944.8z"/>
<path class="st1" d="M628.7,469.4h0.3 M504.5,469.4h0.3 M380.3,469.4h0.3 M225,469.4C225,303.2,290.8,252,504.5,252
	C718.2,252,784,303.2,784,469.4c0,166.2-65.8,217.4-279.5,217.4c-10.6,0-20.8-0.1-30.7-0.4L349.2,811V671.1
	C257.1,645.4,225,585.5,225,469.4z"/>
</svg>
