<?xml version="1.0" encoding="utf-8"?>
<!-- Generator: Adobe Illustrator 22.0.0, SVG Export Plug-In . SVG Version: 6.00 Build 0)  -->
<svg version="1.1" id="Слой_1" xmlns="http://www.w3.org/2000/svg" xmlns:xlink="http://www.w3.org/1999/xlink" x="0px" y="0px"
	 viewBox="0 0 684 676.3" style="enable-background:new 0 0 684 676.3;" xml:space="preserve">
<style type="text/css">
	.st0{fill:#62C0A5;stroke:#292929;stroke-width:8;stroke-miterlimit:10;}
	.st1{fill:#FFFFFF;stroke:#292929;stroke-width:10;stroke-miterlimit:10;}
</style>
<path class="st0" d="M677.3,338.3c0,184.1-149.2,333.3-333.3,333.3c-53.3,0-103.7-12.5-148.4-34.8c-11.9-5.9-25.5-7.9-38.3-4.5
	l-74.2,19.9c-32.2,8.6-61.7-20.9-53.1-53.1L49.9,525c3.4-12.8,1.5-26.4-4.5-38.3c-22.3-44.7-34.8-95.1-34.8-148.4
	C10.7,154.2,159.9,5,344,5C528.1,5,677.3,154.2,677.3,338.3z"/>
<path class="st1" d="M475.7,243c9.8,9.8,9.8,25.6,0,35.4L342.3,411.7c-9.6,9.6-25.2,9.8-35,0.4l-66.7-64c-10-9.6-10.3-25.4-0.7-35.3
	c9.6-10,25.4-10.3,35.3-0.7l49,47l116-116C450.1,233.2,465.9,233.2,475.7,243z"/>
</svg>
