<svg xmlns="http://www.w3.org/2000/svg" xml:space="preserve" id="Слой_1" x="0" y="0" style="enable-background:new 0 0 1458 2028" version="1.1" viewBox="0 0 1458 2028"><style>.st0{fill:#fff}</style><g id="pose_x2F_sitting_x2F_one_x5F_leg_x5F_up-1"><path id="Fill-1" d="M822.2 1299.3c2.2 23.4-2.3 45.7-13.2 64.5l-3.5 6.1 6.8 2.4c12.3 4.3 26 6.4 41.8 6.4 16.3 0 33.2-2.3 46.8-4.1l8.7-1.2-4.3-7.6c-3.4-6.1-4.1-13.5-4.8-21.3-.2-2.1-.4-4.3-.6-6.4-12.9-115.3-29.2-232-45-344.9-4.1-29.7-8.4-60.4-12.6-90.7l-11.9.5c-3.2 55.9-6.3 112.8-9.3 167.8-1.3 24.2-2.7 48.4-4 72.6-4.9 61.3-3.2 110.8 5.1 155.9m4.8 691.2c-17.5 0-35.1-1.8-52.2-5.4-53.5-11.2-102.2-37.7-143.6-61.7-2.1-1.2-4.3-2.4-6.5-3.6-16.2-9.1-36.4-20.3-49-34.1-13.9-15.1-16.2-30.1-7.5-47.3l1.4-2.7-1.4-2.7c-9.1-16.8-8.4-37.7 1.6-50.7l8.4-10.9-13.8 1.5c-14 1.5-28 3.5-41.6 5.4-15.1 2.2-30.7 4.4-46.1 5.9l-4.3.4-1 4.1c-.5 2.3-1.2 3.7-6 3.7-4.1 0-9.6-1.2-15.5-2.5-7.3-1.6-15.5-3.4-23.4-3.4-3.5 0-6.6.3-9.6 1l-1.7.4-1.2 1.3c-.8.8-2.1 1.3-3.5 1.3-1 0-2-.3-2.6-.8l-1.9-1.5-2.5.3c-42.8 4.7-79.8 13-112.9 25.2l-.1.1-.7.3c-12 5.2-24.4 10.5-35.7 10.5-8.3 0-15-2.8-21.1-8.8l-1.7-1.7h-2.4c-24.8-.2-36.2-29.2-37.7-48.6l-.2-2.4-1.9-1.6c-43.3-36.3-68.8-86.1-78.1-152.4-8.4-60.3-2-124 5.5-178.3 17.3-140.7 35.3-266.8 81-386.4l2.1-5.6-5.7-2c-19.8-7.1-34.9-15.6-46.2-25.9l-.8-.7-1-.4c-16.2-6.7-24.1-31.2-26.2-38.6l-.2-.6-.3-.5c-3.3-6.3-4.1-15.2-2.1-24.2l.2-1-.1-1c-1.1-8.6 2.5-17.6 6.2-27.1 1.7-4.3 3.5-8.8 4.8-13.3 4.5-12.8 8.9-25.8 13.2-38.3 9.7-28.2 19.6-57.4 30.3-85.8l1.5-3.9-3.2-2.7c-5.5-4.6-3.6-9.9 4.2-22.8 1.9-3 3.6-5.9 5-8.7 10.1-17.5 20.9-34.2 32.2-49.8l.2-.3.2-.3C269.6 583 372.1 523.5 500.4 523.5h2.6l1.4-.9c24.1-14.5 41.2-39.3 52.5-75.9l.4-1.2-.1-1.2c-.4-3.4-.8-7.8-.7-12.1.4-10.9 4.6-20.6 11.7-26.6 13.4-11.5 33.7-12.4 53.4-12.4h2.8c25.2.1 42.9 4.4 55.9 13.8 15.1 10.8 23.4 28.3 25.5 53.4.6 7.5.6 15.3.6 22.8v2.1l.3.8c1.8 6 3.9 11.7 6.3 17l2.4 5.5 5.5-2.5c3.6-1.6 8.1-2.4 13.9-2.5 1.7 0 3.3-.1 4.9-.1 13.4 0 27.7 1.2 41.5 2.4 10.4.9 21.2 1.8 31.7 2.2h2.2c25.4 0 43.8 4 57.9 12.6 15.2 9.2 26.1 24 34.4 46.6C951.7 696.7 970 836 986.1 958.9c9.1 64.3 11.9 130.2 14.6 193.9 2.8 67.3 5.8 136.8 16.1 204.8l.8 5.4 5.5-.4c24.2-1.6 50.4-4.9 78.1-8.5 42.1-5.4 85.7-11 127.8-11 58.9 0 103.5 11.6 136.4 35.4 23 21.6 34.8 50.9 34.3 84.7-.7 47.8-26 100.6-64.4 134.5l-.1.1c-48.5 45.9-137.2 85.6-263.4 118.2-116.1 30-236.1 46.3-297.4 53.3l-15.2 1.7 12.3 8.9c5 3.6 9.5 6.8 13.9 9.7l2.8 1.9 3.1-1.4c8.8-4 14.4-4.9 17.5-4.9 2.8 0 6.1.6 6.3 3.5.1 1.9-1.2 4.7-4.1 5l-15.1 1.9 12.3 8.8c8.2 5.9 20.5 12.9 34.7 21.1 46.4 26.8 116.6 67.2 104.5 102.7l-.8 2.3 1.1 2.2c3.2 6.4 3.5 12.3.8 18-5.7 12.4-23.7 21.8-38.9 25.6l-.3.1-.3.1c-25.8 9.3-53.6 14-82 14" class="st0"/><path id="_xD83D__xDD8D_-Ink" d="M776.1 1762.4c1.8-1.9 2.6-4.3.9-7.2-6.6-8.4-20.3-2.7-28.8-.7-3.2-2.7-6.4-5.4-9.5-8.2 1.1-6.6-6.9-11.1-10.2-16.2-3.2-3.8-6.3-8.1-10.1-11.2-9.4-7.3-22.4-2.4-33.4-2.7-8.4-10.7-17.1-21.1-25.1-32.1 9.2-15.5 9.9-33.6 6.8-50.9 141.4-53.7 263.8-155.3 416.8-178.8 5.3-.9 8.2-7.3 6.9-12-10.7-25.5-164 40.2-186.9 52.1-67.6 32.4-130.9 72.7-196.6 108.3-13.7 7.3-28.8 11.2-43.8 15-23-75.6-62-144.8-91.8-217.7 1.9-3.4 3.6-6.9 5-10.5-1 40.1 38 39.5 43.4 1.5-2.2 19.8 12.8 62.2 34.4 34.4 5.1-7 6.9-15.9 7.7-25 1.1 6.2 2.4 12.5 3.8 18.7 5.5 12.3 20.7-2.6 24.2-9.1 2-.4 3.9-1.3 5.3-2.4 38.2 5.3 83.3 5 111.3-25.2 47.6 18.3 100.2 1.9 148.4-5.4 97.9-11.3 196.2-28.4 295-27.1 44.1 2.6 96.1 9.7 124.1 47.3 35.8 54.3 15.6 127.5-23.9 174.5-95.1 120.4-421.1 172.7-573.9 190.6m2.6 43.3c1.7-.5 3.5-.9 5.2-1.3 27.7 23.1 158.3 83 148.3 118.8-3.5 4.5-11.9 5.5-17.2 6.9-9.3 2.5-18.6 4.7-28 6.4-30.5 5.5-62 6.5-92.5.2-11.2-1.7-21.3-6.5-31.5-11.1-33-14.5-69.3-30.5-102.1-44.9-41.7-16.5-114.8-49.1-84.7-104 28.5 32 64.6 29.2 82.8-10.6 6.3-12.1 11.8-28.4 26.5-33.3 7.8-5.3 17.7-6.4 24.2-.5.5-.7.9-1.8 1.1-2.7 7.3 10.4 13.7 21.4 22.2 30.9-2.9.2-33.6 22.9-24.6 22.9 10.9-5.6 21.7-10.3 33.5-13.3 8.5 8.6 17.9 16.6 27.6 23.9-9.4 6.2-17.9 13.9-24.7 22.2-.6.7.1 1.7 1 1.3 10.8-4.7 21.7-8.8 32.9-11.8m140.6 154.8c-106 47.6-218.3-5.4-308.7-61.9-20.9-11.7-48.3-28.2-44.1-55.6 15.4 22.5 40.7 35.3 65 46.4 40.9 18.5 82 36.3 122.9 54.6 3.9 12.8 22.4 13.3 33.6 16.2 49.8 9.7 103.3 4.9 150.1-14.4-2.7 7.9-11.6 11.6-18.8 14.7M496.2 1775c-2.6.3-5.2.6-7.9.9.3-3.5-1.8-6.9-5.2-8 1.5-7.3 2.1-14.9 1.3-22.4 4.4 11.3 18.5 7.9 27.5 4.6 12.8-3.5 25.6-7.2 38.3-11.2 5 9.3 10.3 18.4 16.8 26.9-23.7 2.1-47.2 6.3-70.8 9.2m-10.4-35.6c-.6 1.3-1.5 2.7-1.6 4.3-.6-5.5-1.9-10.9-3.8-16.2 1.8 4 3.6 8 5.4 11.9m-15-29.5c-11.7-15.2-33.2-27.6-53.1-23.4-1.3.3-1.3 2.3 0 2.6 26.8 3.6 50.3 24.9 51.2 52.3 2.1 12.4-6.5 24.6-3.6 36.5-.6 0-1.2.1-1.7.1-.2.8-.4 1.5-.7 2.1 2.9.5 3.7 5.1.3 6-2 .5-4.1.7-6.3.9-10.9-2.9-22.4-3.6-32.9-8-10.3-4.6-7.7-17.4-11.4-26.3-2.7-10.2-5.7-20.4-9.6-30.3-.3-.8-1.4-.6-1.4.2-2.7 19.6-2.6 39.5-2 59.3-3.6.4-7.1.8-10.7 1.2.2-5.5-16.3-72.7-25-55.5 4.4 19 4.9 38.8 5.4 58.3-25.9 4.3-51.4 10.6-76.2 19.3-17.5 5.3-38.3 21-55.3 6.8-13.2-10.9-17.6-29.8-16.3-46 17.1-95.5 152.2-106.7 231.9-99.6 7.5 17.4 15.2 34.7 23 52-1.7-2.9-3.5-5.8-5.6-8.5m-271.9 54.3c-1.5-21.7 2.2-48.7 18.3-64.9 36.8-31.1 88.3-40.9 134.2-52.1 21.4-4.2 43.1-7 64.9-8.4 7.7-.6 17.6 1.1 23-5.2 2.8 6.7 5.7 13.3 8.5 20-91.5-12-282.4 29.7-228.9 155-11.3-12.3-18.8-27.2-20-44.4m454.6-71.7c4.2 10.5 9.4 20.5 16.1 29.7-7.6 5-13.9 12.4-18.3 20.4-28.2 73.8-58.4 34.3-95.8-5.3 31.7-12 73.7-21 98-44.8m-469.4 56.7c-73.3-72.4-87.6-193.1-60.5-288 2.4-35.2 14.7-68.7 25.7-102 35.1-101 81.2-198.2 136.6-290 68.7 18.9 137.2 38.2 206 56.5 9.5 2.1 19 6.1 28.7 6.7 3.5 2.2 7 4.7 10.6 6.8-5.3 25.8-.4 52.2.8 78.2 1.1 20.4-1.1 40.5-3.8 60.7-3 29.4-15.5 125.2 9.5 142.7 8.5 4.1 16-8 19.7-4.7 3.3-2.3 6.4-5.3 8.9-8.6 9.6 31.2 25.4 60.2 35.2 91.4 13 45.9 55.5 120.2 46.1 164-7.3 27-39.3 32.9-62.4 41.7-26.7 9.3-53.6 17.8-81 24.7-13.4-28.4-26.2-57.1-38.7-85.8-57.4-132.8-108.2-268.3-153.6-405.4-.9-3-11.3-36-13.2-26.8-.2-.9-1.4-3.4-1.8-1.3 7.7 32.2 15.5 64.4 24 96.4-20.8-2.9-43.1-4-62.1 6.1-1 .5-.3 1.8.7 1.7 22.5-3.9 44.2 3.5 65.8 8.8 30.4 103.3 69.5 204 111 303.4-12.8-4.1-27.7.4-41.1.8-42.1 4.4-83.8 13.6-123.6 27.9-50.1 16.2-85.5 37.3-87.5 94.1m-40.4-753.9c-12.3-13.3-22-30.2-20.1-48.2 7.4-9.9 9.8-22.7 14.2-34.2 16.9-47.7 32.5-95.8 50.8-143.1 39 12 77.4 26.4 113.6 45.3 6.7 3.4 13.3 6.9 19.8 10.6 6.8 3.8 14.3 10.5 22.4 8.6-8.9 12.7-27.4 25.8-30.5 40.5-.7 4.6 2.6 8.9 7.7 7.9 78.9 56 160.4 110.9 234.9 173.3 55.8 44.2 98.7 80.1 117.9 151.8 12.9 46.5 12.9 95 11 142.8-.4 9.3-.4 18.8-1.1 28.1 1.1 7-1 21.2-8.9 21.5.2 1.7.7 3.3 1.6 4.6-.3.3-.5.7-.8 1-.4-1.9-.8-3.8-1.1-5.7-6.1-27.1-6.9-58.6-5.9-87.4.4-8.3-12.3-8.1-13 0l-5.7 65.4c-2.3 14.1 1.3 32.6-10 43.4-11.5-10.6-7.7-31.6-7.1-45.3.9-22.4 1.9-44.7 2.7-67 .3-7.1-11.5-8.9-12.8-1.7-3.8 20.5-7.8 41-12.2 61.4-2.6 7.9-4.5 43.3-17.7 37.1-7.9-5.4-2.2-37-3.2-47.4.5-20.7.8-41.4 2.3-62 .6-8.3-13-10.1-14.8-2-3 13.2-5.9 26.3-8.5 39.6-5.8 22.4-3.7 52.7-24.4 67.5-8.1-58.1 3.6-115.7 5.2-173.6-1-18.7-4.2-37.3-7-55.8-3.1-20.5-5-42.8 2.4-62.5-2-8.8-9.9 15.1-10.6 17.1-6-11.7-20.4-12.6-31.9-16.3-25.5-8.2-51.6-14.5-77.3-21.8-68.3-19-136.8-37.7-205.2-56.3-27.6-7.6-56.4-16.5-76.7-37.2m684.4 308.8c-9.4-51.1-9.2-102.9-5.1-154.6 4.4-80.1 8.7-160.3 13.3-240.4 20 145 41.3 289.9 57.5 435.4 1.2 10.1 1 20.8 6.1 29.9-28.2 3.8-58.3 7.6-85.8-2 12.1-20.9 16.3-44.6 14-68.3m142.7-360c21.4 137.5 9.2 277.3 29.9 414.6-28.7 3.2-57.2 8-85.7 13.2 3.1-17-2.8-34.5-3.8-51.6-15.4-121.8-32.5-243.6-55.1-364.3-5.5-28.9-11.1-57.7-17.6-86.4 1-17.4 1.8-34.8 2.4-52.2 31.3-19.7 66.7-32.5 103.3-38.9 9.9 55.1 19.7 110.1 26.6 165.6m-247.2-432c-1.3-2.1-2.4-4.3-3.6-6.5 3.9.1 7.6.3 11.4.9-.2 6.1.2 12.3.2 18.4-1.8-4.4-5.5-8.6-8-12.8m644.8 861.5c-91.2-66.3-241-24.1-346.6-17.2-20.1-132.1-11.9-266.3-30.7-398.6-17.3-132.2-35.5-266.1-78.9-392.8-17.9-49-48.9-63.5-100-63.1-25.9-1-53.3-5.2-78.5-4.6-5.5.1-11.3.8-16.3 3-7-15.8-10.8-32.7-12.7-49.8-.1-1.1-1.5-1.3-1.9-.2-5.9 14.9-6.5 31.1-3.3 46.7 2.3 11.2 16.2 55 32.3 37.9 1.3 36-6.6 79-41.9 97.7-61.6 26.9-146.8 2.4-182.5-54.6-6.9-11.4-12.9-23.5-20.5-34.5 53.2-15.1 83.1-78.9 70.6-127.4-7.8 37.8-21.9 80-57.1 101.1-128.1-.3-234.7 58.1-294.9 170.5-11.8 16.3-22.7 33.3-32.6 50.5-5.4 11.5-21.1 27.6-7.8 38.8-15.4 41.2-29.1 82.9-43.6 124.4-4 13.8-13.1 28.3-11.2 42.8-2 9-1.9 19.5 2.6 28.2 4.3 15.3 13.8 36 29.7 42.5 13.4 12.3 30.5 20.7 48.2 27.1-47.3 123.6-65.3 257-81.4 387.6-15.7 114.3-23.8 253.3 74.6 335.9 1.9 23.6 15.9 53.7 43.7 54 19.2 18.9 42.6 8.5 64-.7 36.1-13.4 73.9-20.8 111.5-24.9 4 3.2 10.6 2.6 14.2-1 22.8-5.3 54.3 16 58.9-3.3 29.4-2.8 58.4-8.2 87.7-11.3-12.4 16-11.5 39.7-2.2 57-23.7 46.6 31.5 73.7 65.3 92.8 45.6 26.4 93.2 51.4 145.3 62.4 45.8 9.6 93.9 6.7 138.1-8.7 23.2-5.8 55.7-25 41.9-52 17.5-51.4-105.3-104.7-141.4-130.4 14.8-1.8 15.3-32.5-23.1-14.9-4.6-3.1-9.2-6.3-13.7-9.6 155.3-17.8 451.8-67 564.2-173.1 61.9-54.7 97.5-165.1 30-228.2"/></g><g id="head_x2F_mono_x2F_Short-5"><path id="_xD83C__xDFA8_-Background" d="M600 71.3c56.8 0 115.5 44 136.3 72.1 17.5 23.6 26.9 130.4 26.9 202.5 0 15.1 8.3 43.5 5.9 58-8.9 52.9-47.7 97.3-124.5 97.3S512.8 470.7 455.7 389c-27.7 0-41.1-21.2-41.3-54.8-.1-22.3 8.8-37.6 26.7-45.7-6.4-88.2-1.5-143.8 14.6-166.7 24.2-34.5 87.6-50.5 144.3-50.5z" class="st0"/><path id="_xD83D__xDD8D_-Ink_1_" d="M576.1 52.6c35.9-3.6 71-.6 106.3 5.7 2.7.5 4.2 2.3 4.8 4.4 16.6.8 33.3 2 49.9 2.9 6 .3 9.4 6.3 6.7 11.7-.5 1.1-1.1 2.1-1.7 3.1l.7-.2c5-1.6 10.4-2.4 15.3.2 6.2 3.2 8.6 10.4 7.3 17-.4 1.7-.9 3.3-1.6 4.9 1.4-.1 2.7-.1 4.1.1 7.2 1 12.6 6.5 13 13.9.6 11.2-6.6 22.5-15.1 30.5 1.2 2.5 1.7 5.5 1.2 8.5-1 6-5.4 9.5-10.5 11.9 2.1 6.8 3.1 13.8 2.5 21-.2 2.4-2.3 4.4-4.5 4.9 8.3 22.8 12.5 47.3 15.5 71.2 2.2 17 3.2 34.1 3.3 51.2.1 7.7-.1 15.5-.4 23.2l-.1 2.9c-.4 8.4-.4 17.1-1.9 25.4 5.1 8.7 7.2 19.5 8.1 29.3 1.1 12.1-.6 24.5-4.4 36-14.4 43.4-57.8 70.8-101.4 77.9-40.3 6.6-87-2.3-110.6-38.9-.4-.6.4-1.1.9-.7 16.9 13.7 36.4 19.8 57.7 22.8 36.8 5.1 78.1-3.6 107.6-26.7 14.2-11.1 24.4-27.3 28.9-44.7 2.3-8.9 3.1-18.2 2.2-27.3-.9-9.3-5-17.2-7.6-26-.9-3 0-5.7 1.9-7.7.5-7.1 1.7-14.3 2.2-21.4.5-8.1.8-16.1.9-24.2.2-16.8-.5-33.6-1.9-50.2-2.6-30.6-9.4-60.4-13.4-90.7-1.5 1.3-3.6 1.9-5.9.7l-.2-.1-1.2-.7h-.2c-8.3.8-17-.3-25-2.8-8.4-2.6-16.1-6.6-23.1-11.9-1.3 6.7-1.9 13.4-1.9 20.3 0 4.3-4.5 6.5-8.1 4.7-15.9-8.1-31-17.4-45.4-27.8l-5.1 25.8c-.6 3.3-4.9 4.7-7.6 3.1-10.8-6.3-20.1-14.5-27.7-24.2-1.5 2.9-3 5.8-4.6 8.7l-2.3 4.3c-2.3 4.3-5.3 9-10.3 10.3-5.3 1.4-9.7-2-11.4-6.7l-1.5-4.5c-4.5 10.2-9.5 20.2-15.3 29.8-8.6 14.3-18.9 27.1-29.2 40.1-3.1 4-8.5.2-8.9-3.7-.3-2.3-.5-4.6-.6-6.8-6 12.1-12.2 24-19 35.7l1 3.8c2.8 11.3 5.1 22.6 7.7 34 .8 3.7-1.1 8.9-5.4 9.5-5.1.7-9.9 3.4-15.2 1.6-5.7-2-6.8-6.9-9.5-11.6-.5-.9-1.2-1.8-1.8-2.6l-.2.2c-.4.6-1.4 0-1.2-.7l.3-.7c-2.3-2.5-5.1-4.5-7.6-6.7-6-1-12.9.1-17 2.6-9.5 5.6-13.8 17.1-13.9 27.8-.1 12.4 3.7 26.4 10.2 37 2.9 4.7 6.8 8.9 12 11 5.1 2.1 10.7 1.4 15.9 3.4 3.5 1.3 5.6 5.1 3.5 8.6-.1.2-.3.5-.5.7l1.6 2.1c1.1 1.4 2.2 3 3.2 4.6 2.7 3.1 5.5 6 8.2 9 5 5.5 9.9 11.3 14.8 16.9 4.7 5.3 9.6 10.3 14.6 15.2 4.8 4.7 10.8 8.6 15.2 13.5 4.3 4.8 5.4 13.3-1.6 16.1-7.8 3.1-14.7-4.2-19.9-9l-.2-.2c-9.6-8.8-18.3-19-25.2-30.1-6.8 4.6-16.7 5.1-23.5.4-3.6-2.4-6.3-6.6-7.7-11-1.3.3-2.5.4-3.7.4-.6.4-1.3.7-1.9 1.1-5.1 2.6-11.3 1.5-13.6-4.2-2.1-5.1.1-10.9 2-15.8l.4-1c1.1-2.8 2.3-5.8 3.8-8.7-4.1-3.1-7.6-7-10.6-11.3-10-14.8-15-36.3-12.8-53.9 1.3-10.6 6.3-21.6 14.5-28.8l-.3-.8c-2.3-5.8-4.4-11.6-5.7-17.8-1.6-7.2-2.4-14.6-3.1-21.9-1.5-15.4-1.1-31.2.9-46.6 3.7-28.9 13.1-57.4 29.7-81.5-4.7-5.7-8.5-12.3-6.5-19.9.9-3.5 2.9-6.8 6-8.9 1.7-1.1 3.7-1.3 5.4-2.2l.5-.3c.7-.4.2-.4-.3-2.4-1.8-8-.3-15.8 8.5-18.5 8.3-2.5 16.2 2.8 21.1 9.2 12.9-9.2 29.9-13.9 44.9-18 16.7-5.2 34.1-8.1 51.6-9.8zM436.8 322.3c-.1-6.5 6.1-10.6 12.3-9.5 4.1.7 7.5 3.2 10.7 5.7l1.6 1.2c3.9 3.1 8.4 6.4 10.7 10.7 3.4 6.4-3.8 15.1-10.6 10.6-4.6-3.1-7.6-8.1-10.6-12.7l-.3-.5c-1.4-2.1-2.6-4.3-4.5-5.9l-.4-.4c-.6-.5-1.3-1-2.1-1.2-1.5-.4-4.4.2-5.1 2l-.1.2c-.2.9-1.6.7-1.6-.2z"/></g><g id="face_x2F_Smile"><path id="_xD83D__xDD8D_-Ink_2_" d="M661.1 412.9c-6.7-2.7-12.7-7.3-17.1-13.2-1.5-2-1.9-4.2-1.6-6.1.4-2.2 1.7-4.2 3.4-5.5 1.8-1.3 4-2 6.2-1.7 1.9.3 3.7 1.3 5.2 3.5l.3.4c2.6 3.5 6 6.4 9.9 8.3 3.7 1.8 7.9 2.6 12.2 2.1 8.2-.9 13.9-5.4 19.9-11.4.7-.8 1.5-1.5 2.2-2.3.5-.7 1.1-1.2 1.9-1.4.8-.3 1.7-.3 2.6 0 .8.3 1.5.8 2 1.5s.7 1.5.6 2.5c-.6 6.3-3.8 11.8-8.5 16.2-5.2 4.9-12 8.2-18.4 9.4-7 1.3-14.3.4-20.8-2.3zm24.2-96.5c7.6 4.6 19.1 15.3 10.9 26.7-9.6 10-23.3-1.5-30.1-6.7-6.3-4-13.4 6.3-7.5 11 49 36.3 68.9-29.8 30.5-36.4-4.2-.8-5.8 3.9-3.8 5.4zm-87.8-42.3c.8-10.4 16.6-12.7 18.2-2.5 1.4 9.2-.2 17.6-4.4 25.9-4 7.9-13.9 4.2-14.6-3-1.1-9.5.2-13.9.8-20.4zm120-4.5c2.2-2.9 5.4-4.8 9.2-3.7 11.9 3.5 8.4 20.3 4.2 28.6-2.3 4.5-9.6 5.6-12.9 1.7-5.4-6.4-8-19.2-1.1-25.5.2-.5.4-.8.6-1.1zm-106.4-40.8 1.9-.3c5.8-1 13-2 17.1 2.7 2.2 2.5 2.9 7.1 0 9.4-5.2 4.2-10.8 2.6-17 2.9-5.1.3-10 1.1-14.9 2.5-10.8 3.1-19.5 8.7-28.7 14.8-1.2.8-2.4-.7-1.9-1.9 5.3-10.4 15.6-18.9 25.9-24.1 5.5-2.6 11.5-4.9 17.6-6zm95.6-4.6 1.4.3c15.6 3.3 36 9.8 43.4 25.2.3 2.2 0 2.6-.3 2.9l-.1.1c-.2.3-.4.6-1.3.9-.3-.1-.5-.1-.8-.2-3.4-.9-6.1-2.1-8.7-3.4l-2.8-1.4c-3.3-1.6-6.6-3.1-10.1-4.3-7.5-2.4-15.1-4.1-22.9-5.1-1.7-.2-3.3-.8-4.6-1.7-1.2-.9-2.1-2.2-2.6-3.9-.5-2.2-.4-3.9.8-5.9.9-1.5 2.2-2.5 3.6-3.1 1.6-.6 3.3-.8 5-.4z"/></g></svg>