<?xml version="1.0" encoding="utf-8"?>
<!-- Generator: Adobe Illustrator 22.0.0, SVG Export Plug-In . SVG Version: 6.00 Build 0)  -->
<svg version="1.1" id="Слой_1" xmlns="http://www.w3.org/2000/svg" xmlns:xlink="http://www.w3.org/1999/xlink" x="0px" y="0px"
	 viewBox="0 0 712.5 807.6" style="enable-background:new 0 0 712.5 807.6;" xml:space="preserve">
<style type="text/css">
	.st0{fill:#A390F8;stroke:#292929;stroke-width:10;stroke-miterlimit:10;}
	.st1{fill:#FFFFFF;stroke:#292929;stroke-width:10;stroke-miterlimit:10;}
</style>
<path class="st0" d="M5.5,5l62.7,703.8c0.8,8.9,7.1,16.5,15.7,18.9l267.4,74.2c3.8,1,7.8,1,11.5,0L631,727.5
	c8.7-2.4,14.9-9.9,15.7-18.9l60.7-680.1C708.5,15.9,698.6,5,685.9,5H5.5z"/>
<path class="st1" d="M577.4,189.4l-4,44.6l-1.8,19.8h-0.6H359.3H359H258.6c-12.7,0-22.6,10.9-21.5,23.5l4.2,46.9
	c1,11.1,10.3,19.7,21.5,19.7h96.1h0.3H540h0.1c12.7,0.6,22.6,11.5,21.5,24.1l0,0.1l-20.7,232l0,0c-0.8,9-7.1,16.5-15.7,18.9
	l-166.5,46v0l0.1,0.1L192.7,619c-8.7-2.4-14.9-9.9-15.7-18.9l-8.9-100c-1.1-12.6,8.8-23.5,21.5-23.3h17.2h28
	c11.2-0.2,20.5,8.3,21.5,19.4l3.2,35.7c0.8,9,7.1,16.5,15.9,18.9l83.6,22.6l0.9,0v0.5l84-22.7c8.7-2.4,15.1-9.9,15.9-18.9l6.8-76
	c1.1-12.6-8.8-23.5-21.5-23.5H360h-0.3H182.2c-11.2,0-20.5-8.5-21.5-19.7l-19.9-223.7l-2.1-23.7h220.4h0.3h196.6
	c12.7,0,22.6,10.9,21.5,23.5L577.4,189.4z"/>
</svg>
