<svg xmlns="http://www.w3.org/2000/svg" xml:space="preserve" id="Слой_1" x="0" y="0" version="1.1" viewBox="0 0 1000 1000"><style>.st1{fill:#292929}</style><path fill="#f7c90d" stroke="#292929" stroke-miterlimit="10" stroke-width="40" d="M499.5 944.8c-118.7 0-230.3-46.2-314.2-130.1S55.2 619.2 55.2 500.5s46.2-230.3 130.2-314.2c83.9-83.9 195.5-130.1 314.2-130.1s230.3 46.2 314.2 130.1 130.1 195.5 130.1 314.2-46.2 230.3-130.1 314.2c-84 83.9-195.6 130.1-314.3 130.1z"/><path d="M425.5 523.5H574.3l-7.7 87.3-66.7 16.9-66.7-16.9-4.6-52h-68l9.3 105.8 130 33.1 130-33.1 18-203.3H420l-6-67.9h239.9l6-67.8h-320l17.5 197.9z" class="st1"/><path d="m219.6 213 1.2 12.6 49.8 538.1L499.9 822l229.3-58.3 51-550.7H219.6zm454.6 503.7L499.9 761l-174.3-44.3-41.2-444.6h430.8l-41 444.6z" class="st1"/></svg>