<?xml version="1.0" encoding="utf-8"?>
<!-- Generator: Adobe Illustrator 22.0.0, SVG Export Plug-In . SVG Version: 6.00 Build 0)  -->
<svg version="1.1" id="Слой_1" xmlns="http://www.w3.org/2000/svg" xmlns:xlink="http://www.w3.org/1999/xlink" x="0px" y="0px"
	 viewBox="0 0 1000 1000" style="enable-background:new 0 0 1000 1000;" xml:space="preserve">
<style type="text/css">
	.st0{fill:#F7C90D;stroke:#292929;stroke-width:40;stroke-miterlimit:10;}
	.st1{fill:#292929;}
</style>
<path class="st0" d="M498.5,943.9c-118.7,0-230.3-46.2-314.2-130.1C100.4,729.9,54.1,618.3,54.1,499.6
	c0-118.7,46.2-230.3,130.2-314.2c83.9-83.9,195.5-130.1,314.2-130.1c118.7,0,230.3,46.2,314.2,130.1
	c83.9,83.9,130.1,195.5,130.1,314.2c0,118.7-46.2,230.3-130.1,314.2C728.8,897.7,617.2,943.9,498.5,943.9z"/>
<g id="_x35_151e0c8492e5103c096af88a51e7e7e">
	<path class="st1" d="M442.7,501c0,95.5,6.8,175.8-40.3,223.3c-26.5,26.7-68.3,42.5-119.8,42.5c-84.4,0-131.3-41.1-161.2-98
		c28.8-18.4,58.2-36.2,88.2-53.4c12.2,34.2,53.6,72.7,100.2,49c29.6-15,26.1-60.6,26.1-110c0-102.7,0-221.1,0-313.7
		c-0.1-1.5-0.2-3.1,1.1-3.3c35.2,0,70.4,0,105.7,0C442.7,319.9,442.7,413.2,442.7,501z M710.6,438.9c-26.9-11.5-60.4-25.2-68.6-50.1
		c-9.2-27.9,6.5-51,24-58.8c38.4-17.3,84.2,11.2,93.7,40.3c28.9-17.2,57.7-34.5,83.9-54.5c-30.7-51-75.8-87.6-157.9-85
		c-45.2,1.4-79.2,15.7-104.6,37c-24.8,20.8-43.9,50-46.8,91.5c-8.9,124.3,84.1,156,163.4,190.6c25,10.9,52.8,21.9,64.3,43.6
		c23.7,44.7-18.3,74.2-54.5,77.3c-58.1,5.1-97.2-28.9-119.8-64.3c-28.2,17.5-58.9,32.5-86,51.2C539.2,724.1,601,767,697.6,766.7
		c98.5-0.3,171.5-47.8,177.5-137.2C883.2,507.9,792.1,473.8,710.6,438.9z"/>
</g>
</svg>
