<?xml version="1.0" encoding="utf-8"?>
<!-- Generator: Adobe Illustrator 22.0.0, SVG Export Plug-In . SVG Version: 6.00 Build 0)  -->
<svg version="1.1" id="Слой_1" xmlns="http://www.w3.org/2000/svg" xmlns:xlink="http://www.w3.org/1999/xlink" x="0px" y="0px"
	 viewBox="0 0 808.3 808.4" style="enable-background:new 0 0 808.3 808.4;" xml:space="preserve">
<style type="text/css">
	.st0{fill:#FFD101;stroke:#292929;stroke-width:10;stroke-miterlimit:10;}
	.st1{fill:#FFFFFF;stroke:#292929;stroke-width:10;stroke-miterlimit:10;}
</style>
<path class="st0" d="M5.6,5C4.7,5.2,4.8,6.2,4.8,7.3l0,775.7c0,10.8,8.7,19.6,19.5,19.7c251.8,1.5,506.3,0.2,759.2,0.6
	c10.9,0,19.7-8.8,19.7-19.6v-759c0-10.9-8.8-19.6-19.6-19.6H5.6z"/>
<path class="st1" d="M411,700.8c-18.5,18.6-47.6,29.6-83.5,29.6c-49.7,0-80.7-20.4-101.7-50.7c-6.4-9.2-3.8-22,5.7-27.9
	c9.1-5.7,18.3-11.2,27.6-16.7c8.8-5.2,19.9-2.7,25.9,5.6c13,17.8,36.1,31.3,61.4,18.4c20.6-10.5,18.2-42.2,18.2-76.6V365
	c0-0.5,0-1,0-1.5c0-0.9,0-1.8,0.8-1.9h54c10.9,0,19.6,8.8,19.6,19.6v164C439.1,611.8,443.9,667.7,411,700.8z"/>
<path class="st1" d="M740.4,634.8c-4.2,62.3-55.1,95.4-123.7,95.6c-58.2,0.2-98.3-22.2-125.1-58.2c-7-9.4-4.3-22.7,5.7-28.7
	c9.1-5.4,18.5-10.6,27.7-15.8c8.2-4.7,18.6-2.9,24.7,4.3c16.4,19.2,40.6,34.5,73.7,31.6c25.2-2.2,54.5-22.7,37.9-53.9
	c-8-15.1-27.4-22.8-44.8-30.4c-55.2-24.1-120-46.2-113.8-132.8c2.1-28.9,15.4-49.3,32.6-63.7c17.7-14.8,41.3-24.8,72.9-25.8
	c47.7-1.5,77.4,15.9,98.4,42.3c7.1,8.9,5.1,22-4.3,28.4c-8.4,5.7-17,11.1-25.7,16.4c-8.1,4.9-18.6,3.6-24.9-3.4
	c-12.8-14.2-36.5-23.8-57.1-14.6c-12.2,5.5-23.1,21.5-16.7,41c5.7,17.4,29,26.9,47.8,34.9C682.6,526.3,746.1,550.1,740.4,634.8z"/>
</svg>
