<svg xmlns="http://www.w3.org/2000/svg" xml:space="preserve" id="Слой_1" x="0" y="0" style="enable-background:new 0 0 2048 2048" version="1.1" viewBox="0 0 2048 2048"><style>.st0{fill:#292929;stroke:#292929;stroke-width:13;stroke-miterlimit:13}</style><path stroke-width="7" d="M1088.7 159c-5.9 1.1-14.8 3.3-19.7 4.9-10.1 3.4-45.3 20.8-57.2 28.2-17.2 10.8-45.1 23.2-55.4 24.6-3.6.5-4.6.3-4.2-.7.2-.7 10.9-6.6 23.6-13 12.8-6.4 23.8-12.2 24.4-12.8.9-.9-.5-1.2-5.8-1.2-3.9 0-14.9-1.3-24.5-3-39.8-6.7-70.6-8.3-91.3-4.6-26 4.7-64.1 20.7-106.1 44.6-36.9 21-43.8 27.4-57.3 53-3.3 6.3-9.5 19.6-13.7 29.5-4.3 9.9-8.3 19.2-9.1 20.6-1.8 3.6-10.6 6.7-33.9 11.9-35.7 7.9-54 14.1-65.2 21.9-11 7.8-21.2 20.4-44.3 55.1-23.7 35.5-36.8 59.1-42.4 76.3-5.6 16.8-13.6 63.1-13.6 78.2 0 4.7-.6 5.8-9.5 18.5-9.8 13.8-18.1 27.3-41.7 67.5-23.6 40.3-24.8 43-27.3 61.3-5.5 40.3-9.1 94.3-6.6 100.4 2.1 5.5 6.3 3.3 19.8-10.4 11.8-11.8 21.4-24.2 32.6-41.6 6.7-10.4 9.7-14 9.7-11.7 0 1.4-13.8 25.7-18.1 32-2.6 3.8-9.7 12.4-15.6 19-13.4 14.8-29.8 36.5-35.3 46.7-12.5 23.3-16.8 51.4-15.7 103.2.6 26.6.7 27.3 6.8 46.6 8.3 25.7 29.3 58.6 33.3 52.1.3-.5-.8-4.8-2.5-9.6-1.6-4.9-4.1-15.2-5.4-23-2.2-12.7-2.3-15.3-1.5-26.5 1.6-21 5-34.3 14-54.5 8.4-19.1 20.7-39.4 22.9-38 .5.2-2.2 6.4-5.9 13.7-16.2 31.8-23.1 56.3-24.5 87.8-.6 12-.4 14.8 1.8 25 6.1 28.2 14.3 42.7 43.7 77.4 34.7 41 38.3 48.3 54 110.1 2.6 10.4 5.8 24.8 7 32 1.2 7.1 2.5 13.7 2.8 14.5.6 1.7 3.3-17.4 5.7-40 .9-8.5 1.8-15.7 2.1-15.9 1.3-1.4 1.9 2.5 2.2 14.4.4 16.3-2 45.9-5.3 65.3-4.2 24-3.3 31.6 5.6 49.4 9.6 19.2 24.6 42.7 28.7 44.9 3.9 2.2 4.2-.4 1.1-8.4-4.1-10.6-12.7-44.9-13.9-55.2-1.8-16.6-1.5-19.1 3.7-30.1 2.6-5.5 6.8-15.8 9.4-22.9 3.4-9.1 4.9-12.1 4.9-10 .1 1.6.5 18.3.9 37 .5 18.7 1.3 36 1.9 38.5s1.8 13.5 2.7 24.5c8.5 109 41.1 216.7 91.6 303 50.6 86.5 114.5 149 190.8 186.4 38.9 19.1 76.1 30 120.6 35.3 15.1 1.8 87.9 1.8 103 0 82.1-9.8 152-42.7 217-101.9 48.1-43.9 93.7-109.3 125-179.3 17.6-39.6 36.3-92.3 42-118.5 2-9.4 5.7-25.3 8.1-35.5s5.3-24.1 6.4-31c3.8-22.8 2.2-19.8 20.4-36.9 3.7-3.6 9.3-9.6 12.4-13.5 3-3.9 9.2-11.4 13.7-16.6 9.2-10.7 14.9-20.3 27-45.3 20.5-42.5 31.5-85.2 31.5-122.2 0-3.7.6-6.9 1.4-8 1.3-1.8 1.5-1.3 2.1 4.9 1.3 11.6-.1 41.9-2.4 54.2-1.7 9.2-6.3 26.8-9.6 36.9-.3 1.1 3.3-5.7 8.2-15 4.9-9.4 13.4-23.8 18.9-32 5.6-8.3 11.3-17.3 12.7-20 7.4-14.7 9.5-30.9 7.8-59.8-1.5-24.4-3.7-54.4-5.2-68.7-1.3-11.9-8.2-50.9-10.4-58.4-1.7-5.8-1.9-8-.5-7.1 1.3.8 7.5 20.5 9.4 30 1.8 8.9 6.6 43.3 9.1 65 2.1 18.2 2.2 18.7 4.2 18.3 1.8-.3 3.4-6.6 5.3-20.7.6-4.7 2.5-15.5 4.1-24 6.2-31.9 8.1-58.1 6-81.7-1.2-12.9-1.1-14.9.9-26.9 2.8-17.7 7.6-37 15.5-62.4 18.6-60.7 22.2-92.6 15.9-142.1-3.9-31.2-11.3-55-26.3-84.8-5.2-10.4-14.9-24.7-26.5-39.2-14.5-18-16.4-21.8-28.9-56.5-8.8-24.2-9.3-25.3-17.9-38.5-9.1-14-16.5-23-30.5-37.3-5.8-5.9-10.3-11-10-11.4 1.3-1.2 9.3 5.3 20.4 16.5 9.7 9.8 22.2 24.9 38.2 46.4 7 9.3 7.5 7.7 3.1-9.7-11.3-44.9-39.6-113.1-54.4-130.9-12.5-15.1-28-29.6-46.7-43.8-15.4-11.7-25.9-21.6-29.1-27.4-1.5-2.7-5.6-13.8-9.2-24.7-7.8-23.6-9.2-26.4-16.4-33.9-7-7.4-14.6-12.1-31.9-20.2-35.9-16.6-68.2-25-101.2-26.3l-15.5-.6-6-4.9c-20.1-16.2-64.6-42.1-98.1-56.9-27.3-12-38.9-15.7-57.9-18.5-24.4-3.5-37.5-3.9-50.9-1.4zM952 461c17.1 2.7 30 9.5 38.6 20.2 10.8 13.4 14.2 21.2 22.4 51.3 10.9 40.2 15.9 53.6 25.3 67.7 10.2 15.3 20.3 23.7 43.2 35.8 9.3 5 36.3 15.5 37.2 14.6.3-.3 1.4-.1 2.4.4 1 .6 2 .6 2.3.1.3-.4-2.8-3.8-6.9-7.5-7.2-6.5-18.5-19.5-29.4-33.9-4.7-6.3-6.2-9.7-4.3-9.7.4 0 6 6 12.5 13.4 30.1 34.1 48.4 48 71.8 54.6 26.2 7.3 78.8 10.5 107.9 6.6 28.3-3.8 62.7-12.9 78-20.6 17.9-9 50.9-36.1 52.5-43 .5-2.3-.4-3-12.2-9.7-7.1-3.9-14.4-7.9-16.3-8.9-7-3.4-26.7-18.9-35.5-27.8-9.7-9.8-12.5-14.3-12.5-19.9 0-9.2 16.8-14.8 29.8-9.9 10.8 4.1 22.1 14.4 31 28.1 8 12.1 20.6 37.6 28.6 57.6 9 22.2 18.8 43.4 26.1 56.4 13.1 23.4 32.1 48.5 46.2 61.2 4.8 4.4 11.2 10.5 14.1 13.7 18.6 19.9 41.1 57.5 49.2 82.1 3.7 11 6.8 25.9 10.5 49.9 2.4 15.5 2.6 19.7 1 18-.3-.3-2.8-11.2-5.5-24.4-6.2-29.3-8-35.7-13.5-49-10-23.8-32.4-58.1-47.9-73.4-3.6-3.5-6.6-6.2-6.6-5.9s.9 3.2 2 6.3c2.8 8.1 9.8 43.7 11.5 58.6 2 16.4 1.9 51 0 77.3l-1.6 20.6 2.6 19.8c8 60.5 9 73.9 9 119.8 0 42.3-.7 48.7-8.1 77-1.9 7.1-5.2 20.2-7.5 29-2.2 8.8-5.3 20.5-6.9 26.1-7.3 25-8 32.1-9 88.9-1.2 73.1-6.4 120.1-19.5 179.1-12.3 54.9-27.6 100.1-48.9 143.9-32.5 66.9-67.7 117.6-112.6 162.5-35.9 35.9-64.5 56.7-105 76.4-33.9 16.4-66.1 26-105 31.3-19.8 2.7-94.2 2.7-114 0-38.9-5.3-71.1-14.9-105-31.3-40.5-19.7-69.1-40.5-105-76.4-39.6-39.5-73.2-85.9-102.2-141-51.8-98.3-79.4-222.5-79.9-359.5 0-11-.4-24.7-.8-30.5-.6-7.8-.5-13.5.7-22 1.9-14.7 1.8-57.1-.2-76-2.3-21.6-1-72.8 3.4-131 7.8-102.6 9.6-118.5 16.5-147.2 3-12.5 6.6-26.9 8-32 5.7-20.3 24-61.9 37.5-85.3 30.5-52.9 45.8-74.8 73.5-105.1 21.7-23.8 39.9-46.8 54.8-69.4 12.9-19.5 12.8-19.1-1.1 5.5-24.6 43.5-37.7 63-68.4 101.6-13.6 17.1-27.2 35.2-32.2 43-.9 1.4-1.4 3.4-1 4.3 1.1 2.9 4.7 1.7 8.1-2.7 9.4-12.1 23.3-24.8 45.7-41.6 19.2-14.4 28.2-20.4 36.6-24.6 9.5-4.7 50.4-33 65-44.9 9.8-8 34-31.6 44.8-43.6 9.1-10.2 20.3-26.3 25.8-37.2 4.1-8.1 10.1-23.2 13.8-34.8 4.4-13.8 10.9-21 20.6-22.9 6.2-1.2 6.7-1.2 14-.1z" class="st0"/><path stroke-width="7" d="M721.6 897.1c-20.2 2.9-44.6 13.8-67.7 30.1-12.4 8.7-18.8 14.2-18.8 16-.1 2.3 2.6 2.3 34.4-.2 13.8-1 35.8-2 49-2.1 20.5-.2 26 .1 38 2 12.4 2 17.3 2.2 42.5 2 32.3-.3 46.8 1.2 74 7.6 8 1.9 16.3 3.7 18.5 4 4.6.7 29 5.8 41.4 8.6 9.7 2.2 12.9 1.4 14.3-3.6 2.8-10.1-9-35.8-20.2-44-8.6-6.3-28.2-13.5-45.6-16.6-19.7-3.5-34.3-4-59.4-2.2-22.8 1.6-39.1 1.2-69.5-1.7-11.2-1.1-23.1-1-30.9.1zm33.4 10c14.1 1.1 16.7 1.5 15.7 2.6-.4.3-12 .9-25.9 1.4-22.9.7-39.4 2.5-51.3 5.5-4.5 1.1 1.3-1.5 10-4.5 16.7-5.9 27.4-7 51.5-5zM934 911.5c0 .8 3.5 4.9 7.8 9.2 10.6 10.7 16.2 21.8 17.7 35.3 1.3 11.8 1.6 13 3.5 13 3.3 0 4.5-2.9 4.4-10.9-.1-11.7-5.7-27.5-12.3-34.4-2.4-2.6-19-13.7-20.5-13.7-.3 0-.6.7-.6 1.5zM1311.5 922.1c-3.8.4-25.2 1.2-47.5 1.8-41.8 1.1-44.5 1.3-64.3 5.5-6.5 1.4-15.2 2.8-19.3 3.2-9.5.9-12.4 2.9-12.4 8.4 0 4.1 4.6 16.9 8.3 23 8.8 14.7 10.1 15.8 22.2 18.5 11.5 2.6 27.5 2.2 46-.9 13.8-2.3 33-4.5 54.5-6.1 4.7-.4 15-1.5 23-2.6 23.4-3.1 47.3-2.2 80.6 2.8 26.7 4 42.5 2.6 43.2-3.8.2-2.1-.7-3.3-5-6.6-13.7-10.4-44.1-25.1-69.8-33.7-26.7-8.9-43-11.5-59.5-9.5zM1148 938.5c-.9 1.1-1.1 3.9-.8 9.3.6 8.6 3.6 16.5 9.3 24.2 6.3 8.5 17.3 14.4 20.3 10.7 1.9-2.2.7-3.9-6.4-9.6-11.1-8.9-16.1-16.8-17.9-28.6-1.3-7.9-2.1-8.9-4.5-6zM779 976.1c-24.3 2.6-56 14.5-74 27.9-10.2 7.7-29 27.8-29 31.1 0 2.3 3 .1 13.2-9.6 10.4-10 12.8-11.8 12.8-9.5 0 1.8 12.6 14.4 19.9 19.8 23.5 17.4 67.2 28.3 101.7 25.3 13.7-1.2 24-3.8 33.9-8.6 7.5-3.6 12.3-7.5 9.2-7.5-.9 0-4.5 1.1-7.9 2.5-11.9 4.6-33.5 8.6-45.9 8.4l-6.4-.1 5.7-1.4c20.4-4.9 36.7-22.6 40-43.7.7-4.2 1.5-7.7 1.8-7.7.4 0 5.3 3.9 11.1 8.6 5.7 4.7 14.9 11.7 20.4 15.5s14.7 11.5 20.5 17.1l10.5 10.3-3.3.3c-1.8.2-7.3-.6-12.1-1.7-11.8-2.8-21.3-2.7-33.1.4-36.8 9.6-45.6 11-63.5 10.2-26.1-1.2-42.6-5.4-65.5-16.3-14.2-6.9-20.1-8.2-11.5-2.6 8.2 5.4 26.4 13.8 36.5 17 16.3 5.2 30.9 7.6 45.5 7.6 14.1-.1 20.1-1 45-7.4 8.3-2.1 18.2-4.3 22-4.8 7.1-.9 18.4-.2 26.5 1.7 11.7 2.7 18.8.2 17.6-6.3-1.4-7.4-14.3-22-29.4-33.3-6.5-4.8-14.3-10.9-17.4-13.7-3.1-2.7-7.6-6.2-9.9-7.8-2.3-1.5-3.7-2.8-3.1-2.8s9.5 2 19.9 4.5c22.6 5.3 36.8 7.4 38.5 5.7.8-.8.8-1.5.3-2.1-.6-.5-8.9-3.2-18.5-6s-24.4-7.1-32.9-9.6c-20.1-5.9-41.4-10.2-57.5-11.5-14.5-1.1-19.4-1.1-31.6.1zm-5.1 18.5c5.9 5 4.9 13.3-2.1 16.7-4.9 2.4-10.1.9-12.9-3.7-6.2-10.2 5.8-20.8 15-13zm-26.3 9.1c0 8.5.5 12.1 2.2 16.8 5.3 14.3 16.7 26.2 30.2 31.7l4.5 1.8-4-.6c-7.7-1.2-22.9-5.5-30-8.5-4-1.6-10.8-5.6-15.2-8.8-13.8-10.1-19.2-19.4-16.7-28.9.8-2.7 5-5 18.9-10.3 5.5-2.1 10-3.8 10-3.9 0 0 0 4.8.1 10.7zM1253 999.7c-37.5 1.3-58.1 5-75.6 13.3-14.9 7.1-28.5 24.3-32.9 41.5-2.5 9.7-2.9 16.7-1.1 19l1.5 2 2-2c1.1-1.1 4.7-8.1 7.9-15.6 6.2-14.2 9.5-19.8 17-28.7 7.4-8.8 23.3-15.1 49.7-19.7 10.1-1.7 41.1-3.8 49.5-3.3l5.5.3-11 2.3c-38.2 8-73.6 27.8-88.9 49.7-6.5 9.1-11.8 19.3-11.4 21.8.6 4.1 6.9 3.5 11.8-1.3 1.6-1.6 3-3.4 3-4 0-1.3-.1-1.3-4.5.6-2 .8-3.9 1.3-4.1 1.1-.3-.2 5.3-6.3 12.3-13.4 16.6-16.8 31.8-27 53-35.6l6-2.5.6 7.7c2.5 34.8 37.4 57.6 69.9 45.8 22.2-8 35.7-27.6 35.8-51.5v-7.4l3.1.7c1.7.4 7.2 2.1 12.2 3.8 8.2 2.9 9.4 3.7 12.1 7.5 4.4 6.2 4.2 13.7-.5 22.9-3.1 6.1-4.2 7.3-12.5 12.9-10.2 6.9-26.5 13.8-38.1 16-9.6 1.8-24 1.8-33.7-.1-4.2-.8-17.2-4.5-28.9-8.4-11.6-3.8-25.9-7.9-31.6-9.1-18.6-4-40.5-1.7-43.9 4.7-2.3 4.2-.5 4.7 18.2 4.4 20.1-.3 31.8 1.3 58.8 8 8.7 2.1 20.2 4.4 25.5 5 11.2 1.3 27.8.7 37.7-1.5 8.9-2 23.9-7.8 31.3-12.2l5.8-3.4-5 4.5c-2.7 2.5-7.3 5.7-10 7-5.8 2.9-22.2 7.2-31 8.1-7.6.8-10.6 2.3-4.8 2.4 5.3 0 22.9-3.4 31.3-6.1 10.9-3.6 18-7.9 26.1-15.9 8.1-8.1 15.8-19.8 17.9-27.5.7-2.5 1.7-4.5 2.2-4.5 2.3 0 6.6 3.2 9.3 6.9 1.7 2.2 3.6 4.1 4.3 4.1 1.7 0 1.6-.6-1.5-6.1-5.5-10.2-28.4-25.6-47.3-31.7-29.2-9.6-64.8-13.9-103-12.5zm15 19.8c3.6 1.9 5 4.3 5 8.9 0 5.3-3.7 9.1-9 9.1-3.5 0-4.7-.6-7.1-3.3-3.5-3.9-3.7-7.9-.8-11.6 3.6-4.5 7.3-5.5 11.9-3.1z" class="st0"/><path stroke-width="7" d="M1266 1088.9c0 .5 2.4 1.4 5.3 2 12.9 2.7 35.7 4.1 35.7 2.2 0-.5-3.5-1.2-7.7-1.6-4.3-.4-11.8-1.3-16.8-2.1-10.4-1.6-16.5-1.8-16.5-.5zM1135.5 1180.2c-1.5 3.7 4.5 31.6 12.4 57.4 2.2 7.1 4.6 15.4 5.4 18.4s3.3 11.8 5.5 19.5c5.8 20 7.6 30.2 7.6 43.5.1 29.4-12.2 43.6-46.9 54-4.9 1.5-9.1 3.2-9.3 3.9-1.2 3.5 13.7 4.1 24.8 1 22.2-6.1 39.9-22.8 44.1-41.7 2.5-10.7-3.2-36.4-14.4-66.3-6.8-17.8-17.3-50.4-22.7-70.4-2.3-8.3-4.5-16.4-4.9-18-.7-2.4-1-2.7-1.6-1.3z" class="st0"/><path stroke-width="7" d="M938.4 1336.4c-5.7 2.5-5.2 6.5 1.1 9.2 1.7.7 11.4 2.2 21.5 3.4 19.8 2.2 25.5 3.8 40.8 11.2 12 5.7 21.4 8.7 31.9 10 12.9 1.7 22.4.2 43-6.7 15.7-5.2 17.7-5.6 30.8-6.5 7.7-.5 16.5-1.2 19.5-1.5 6-.6 14.6-4 15.4-6.1.8-2-3.2-5.3-7.2-6-8.6-1.6-16.1.3-48 12.6-18.6 7.1-26.6 9-40.7 9.7-10.2.5-13.3.2-20.4-1.5-9.1-2.4-24.3-9.4-36-16.7-4-2.6-10.1-5.7-13.5-7-13.5-5.1-31.5-7-38.2-4.1zM974 1491.7c-1.3.3-5.8 1.9-10 3.5-4.1 1.7-15.3 5.6-24.9 8.7-17.4 5.7-21.8 8.1-14.6 8.1 5.5 0 27.2-4.6 37.9-8 15-4.8 17.8-5.1 35.3-3.5 29 2.7 42.5 2.9 58.1 1 18.6-2.2 25.1-1.3 46.7 6.4 13.5 4.9 20.4 7.1 32.8 10.7.9.3 1.7.1 1.7-.4s-4.2-2.4-9.2-4.2c-5.1-1.8-16.7-6.1-25.8-9.5-9.1-3.5-19-6.8-22-7.4-3.2-.6-15.7-1-30-.9-22.1.2-26.2-.1-42.2-2.5-16.2-2.5-27.5-3.1-33.8-2zM978 1518.7c-2.5.1-11 .9-19 1.7s-22.7 1.8-32.8 2.1c-27.8.9-67.3 6.2-70.5 9.4-2.6 2.6 1.1 3.2 17.9 2.7 67.8-1.8 95.8-2.7 108-3.5 22.5-1.4 69.6.8 102.4 4.9 8.5 1 18.4 2.2 22 2.5s13.1 1.2 21.2 2c16.8 1.7 58.9 2 70 .5 4-.5 9.9-1.2 13.1-1.5 3.7-.4 5.7-1.1 5.7-1.9 0-1.6-8.4-2.6-21-2.6-13.1 0-32.2-1.7-55-5-61.2-8.8-99.9-12.1-136-11.8-11.8.1-23.5.3-26 .5zM1018.5 1618.1c-14.5.8-26.9 3-30 5.3-1.8 1.3-1.8 1.4.4 2.5 1.8 1 4.2 1 11.2 0 18.2-2.5 64.4.1 81.7 4.5 12.1 3.2 20.9 2.1 15-1.8-4-2.6-24.5-7.6-39.8-9.6-15.4-2.1-16.8-2.1-38.5-.9z" class="st0"/></svg>
