<?xml version="1.0" encoding="utf-8"?>
<!-- Generator: Adobe Illustrator 22.0.0, SVG Export Plug-In . SVG Version: 6.00 Build 0)  -->
<svg version="1.1" id="Слой_1" xmlns="http://www.w3.org/2000/svg" xmlns:xlink="http://www.w3.org/1999/xlink" x="0px" y="0px"
	 viewBox="0 0 2048 2048" style="enable-background:new 0 0 2048 2048;" xml:space="preserve">
<style type="text/css">
	.st0{fill:#292929;stroke:#292929;stroke-width:70;stroke-miterlimit:100;}
</style>
<g transform="translate(0.000000,2048.000000) scale(0.100000,-0.100000)">
	<path class="st0" d="M10887,18890c-59-11-148-33-197-49c-101-34-453-208-572-282c-172-108-451-232-554-246c-36-5-46-3-42,7
		c2,7,109,66,236,130c128,64,238,122,244,128c9,9-5,12-58,12c-39,0-149,13-245,30c-398,67-706,83-913,46c-260-47-641-207-1061-446
		c-369-210-438-274-573-530c-33-63-95-196-137-295c-43-99-83-192-91-206c-18-36-106-67-339-119c-357-79-540-141-652-219
		c-110-78-212-204-443-551c-237-355-368-591-424-763c-56-168-136-631-136-782c0-47-6-58-95-185c-98-138-181-273-417-675
		c-236-403-248-430-273-613c-55-403-91-943-66-1004c21-55,63-33,198,104c118,118,214,242,326,416c67,104,97,140,97,117
		c0-14-138-257-181-320c-26-38-97-124-156-190c-134-148-298-365-353-467c-125-233-168-514-157-1032c6-266,7-273,68-466
		c83-257,293-586,333-521c3,5-8,48-25,96c-16,49-41,152-54,230c-22,127-23,153-15,265c16,210,50,343,140,545c84,191,207,394,229,380
		c5-2-22-64-59-137c-162-318-231-563-245-878c-6-120-4-148,18-250c61-282,143-427,437-774c347-410,383-483,540-1101
		c26-104,58-248,70-320c12-71,25-137,28-145c6-17,33,174,57,400c9,85,18,157,21,159c13,14,19-25,22-144c4-163-20-459-53-653
		c-42-240-33-316,56-494c96-192,246-427,287-449c39-22,42,4,11,84c-41,106-127,449-139,552c-18,166-15,191,37,301
		c26,55,68,158,94,229c34,91,49,121,49,100c1-16,5-183,9-370c5-187,13-360,19-385s18-135,27-245c85-1090,411-2167,916-3030
		c506-865,1145-1490,1908-1864c389-191,761-300,1206-353c151-18,879-18,1030,0c821,98,1520,427,2170,1019
		c481,439,937,1093,1250,1793c176,396,363,923,420,1185c20,94,57,253,81,355s53,241,64,310c38,228,22,198,204,369
		c37,36,93,96,124,135c30,39,92,114,137,166c92,107,149,203,270,453c205,425,315,852,315,1222c0,37,6,69,14,80c13,18,15,13,21-49
		c13-116-1-419-24-542c-17-92-63-268-96-369c-3-11,33,57,82,150c49,94,134,238,189,320c56,83,113,173,127,200c74,147,95,309,78,598
		c-15,244-37,544-52,687c-13,119-82,509-104,584c-17,58-19,80-5,71c13-8,75-205,94-300c18-89,66-433,91-650c21-182,22-187,42-183
		c18,3,34,66,53,207c6,47,25,155,41,240c62,319,81,581,60,817c-12,129-11,149,9,269c28,177,76,370,155,624c186,607,222,926,159,1421
		c-39,312-113,550-263,848c-52,104-149,247-265,392c-145,180-164,218-289,565c-88,242-93,253-179,385c-91,140-165,230-305,373
		c-58,59-103,110-100,114c13,12,93-53,204-165c97-98,222-249,382-464c70-93,75-77,31,97c-113,449-396,1131-544,1309
		c-125,151-280,296-467,438c-154,117-259,216-291,274c-15,27-56,138-92,247c-78,236-92,264-164,339c-70,74-146,121-319,202
		c-359,166-682,250-1012,263l-155,6l-60,49c-201,162-646,421-981,569c-273,120-389,157-579,185C11152,18911,11021,18915,10887,18890
		z M9520,15870c171-27,300-95,386-202c108-134,142-212,224-513c109-402,159-536,253-677c102-153,203-237,432-358
		c93-50,363-155,372-146c3,3,14,1,24-4c10-6,20-6,23-1c3,4-28,38-69,75c-72,65-185,195-294,339c-47,63-62,97-43,97
		c4,0,60-60,125-134c301-341,484-480,718-546c262-73,788-105,1079-66c283,38,627,129,780,206c179,90,509,361,525,430
		c5,23-4,30-122,97c-71,39-144,79-163,89c-70,34-267,189-355,278c-97,98-125,143-125,199c0,92,168,148,298,99
		c108-41,221-144,310-281c80-121,206-376,286-576c90-222,188-434,261-564c131-234,321-485,462-612c48-44,112-105,141-137
		c186-199,411-575,492-821c37-110,68-259,105-499c24-155,26-197,10-180c-3,3-28,112-55,244c-62,293-80,357-135,490
		c-100,238-324,581-479,734c-36,35-66,62-66,59s9-32,20-63c28-81,98-437,115-586c20-164,19-510,0-773l-16-206l26-198
		c80-605,90-739,90-1198c0-423-7-487-81-770c-19-71-52-202-75-290c-22-88-53-205-69-261c-73-250-80-321-90-889
		c-12-731-64-1201-195-1791c-123-549-276-1001-489-1439c-325-669-677-1176-1126-1625c-359-359-645-567-1050-764
		c-339-164-661-260-1050-313c-198-27-942-27-1140,0c-389,53-711,149-1050,313c-405,197-691,405-1050,764c-396,395-732,859-1022,1410
		c-518,983-794,2225-799,3595c0,110-4,247-8,305c-6,78-5,135,7,220c19,147,18,571-2,760c-23,216-10,728,34,1310
		c78,1026,96,1185,165,1472c30,125,66,269,80,320c57,203,240,619,375,853c305,529,458,748,735,1051c217,238,399,468,548,694
		c129,195,128,191-11-55c-246-435-377-630-684-1016c-136-171-272-352-322-430c-9-14-14-34-10-43c11-29,47-17,81,27
		c94,121,233,248,457,416c192,144,282,204,366,246c95,47,504,330,650,449c98,80,340,316,448,436c91,102,203,263,258,372
		c41,81,101,232,138,348c44,138,109,210,206,229C9442,15881,9447,15881,9520,15870z"/>
	<path class="st0" d="M7216,11509c-202-29-446-138-677-301c-124-87-188-142-188-160c-1-23,26-23,344,2c138,10,358,20,490,21
		c205,2,260-1,380-20c124-20,173-22,425-20c323,3,468-12,740-76c80-19,163-37,185-40c46-7,290-58,414-86c97-22,129-14,143,36
		c28,101-90,358-202,440c-86,63-282,135-456,166c-197,35-343,40-594,22c-228-16-391-12-695,17C7413,11521,7294,11520,7216,11509z
		 M7550,11409c141-11,167-15,157-26c-4-3-120-9-259-14c-229-7-394-25-513-55c-45-11,13,15,100,45C7202,11418,7309,11429,7550,11409z
		"/>
	<path class="st0" d="M9340,11365c0-8,35-49,78-92c106-107,162-218,177-353c13-118,16-130,35-130c33,0,45,29,44,109
		c-1,117-57,275-123,344c-24,26-190,137-205,137C9343,11380,9340,11373,9340,11365z"/>
	<path class="st0" d="M13115,11259c-38-4-252-12-475-18c-418-11-445-13-643-55c-65-14-152-28-193-32c-95-9-124-29-124-84
		c0-41,46-169,83-230c88-147,101-158,222-185c115-26,275-22,460,9c138,23,330,45,545,61c47,4,150,15,230,26c234,31,473,22,806-28
		c267-40,425-26,432,38c2,21-7,33-50,66c-137,104-441,251-698,337C13443,11253,13280,11279,13115,11259z"/>
	<path class="st0" d="M11480,11095c-9-11-11-39-8-93c6-86,36-165,93-242c63-85,173-144,203-107c19,22,7,39-64,96
		c-111,89-161,168-179,286C11512,11114,11504,11124,11480,11095z"/>
	<path class="st0" d="M7790,10719c-243-26-560-145-740-279c-102-77-290-278-290-311c0-23,30-1,132,96c104,100,128,118,128,95
		c0-18,126-144,199-198c235-174,672-283,1017-253c137,12,240,38,339,86c75,36,123,75,92,75c-9,0-45-11-79-25c-119-46-335-86-459-84
		l-64,1l57,14c204,49,367,226,400,437c7,42,15,77,18,77c4,0,53-39,111-86c57-47,149-117,204-155s147-115,205-171l105-103l-33-3
		c-18-2-73,6-121,17c-118,28-213,27-331-4c-368-96-456-110-635-102c-261,12-426,54-655,163c-142,69-201,82-115,26
		c82-54,264-138,365-170c163-52,309-76,455-76c141,1,201,10,450,74c83,21,182,43,220,48c71,9,184,2,265-17c117-27,188-2,176,63
		c-14,74-143,220-294,333c-65,48-143,109-174,137c-31,27-76,62-99,78c-23,15-37,28-31,28s95-20,199-45c226-53,368-74,385-57
		c8,8,8,15,3,21c-6,5-89,32-185,60s-244,71-329,96c-201,59-414,102-575,115C7961,10731,7912,10731,7790,10719z M7739,10534
		c59-50,49-133-21-167c-49-24-101-9-129,37C7527,10506,7647,10612,7739,10534z M7476,10443c0-85,5-121,22-168
		c53-143,167-262,302-317l45-18l-40,6c-77,12-229,55-300,85c-40,16-108,56-152,88c-138,101-192,194-167,289c8,27,50,50,189,103
		c55,21,100,38,100,39C7475,10550,7475,10502,7476,10443z"/>
	<path class="st0" d="M12530,10483c-375-13-581-50-756-133c-149-71-285-243-329-415c-25-97-29-167-11-190l15-20l20,20
		c11,11,47,81,79,156c62,142,95,198,170,287c74,88,233,151,497,197c101,17,411,38,495,33l55-3l-110-23c-382-80-736-278-889-497
		c-65-91-118-193-114-218c6-41,69-35,118,13c16,16,30,34,30,40c0,13-1,13-45-6c-20-8-39-13-41-11c-3,2,53,63,123,134
		c166,168,318,270,530,356l60,25l6-77c25-348,374-576,699-458c222,80,357,276,358,515v74l31-7c17-4,72-21,122-38c82-29,94-37,121-75
		c44-62,42-137-5-229c-31-61-42-73-125-129c-102-69-265-138-381-160c-96-18-240-18-337,1c-42,8-172,45-289,84c-116,38-259,79-316,91
		c-186,40-405,17-439-47c-23-42-5-47,182-44c201,3,318-13,588-80c87-21,202-44,255-50c112-13,278-7,377,15c89,20,239,78,313,122
		l58,34l-50-45c-27-25-73-57-100-70c-58-29-222-72-310-81c-76-8-106-23-48-24c53,0,229,34,313,61c109,36,180,79,261,159
		c81,81,158,198,179,275c7,25,17,45,22,45c23,0,66-32,93-69c17-22,36-41,43-41c17,0,16,6-15,61c-55,102-284,256-473,317
		C13268,10454,12912,10497,12530,10483z M12680,10285c36-19,50-43,50-89c0-53-37-91-90-91c-35,0-47,6-71,33c-35,39-37,79-8,116
		C12597,10299,12634,10309,12680,10285z"/>
	<path class="st0" d="M12660,9591c0-5,24-14,53-20c129-27,357-41,357-22c0,5-35,12-77,16c-43,4-118,13-168,21
		C12721,9602,12660,9604,12660,9591z"/>
	<path class="st0" d="M11355,8678c-15-37,45-316,124-574c22-71,46-154,54-184s33-118,55-195c58-200,76-302,76-435
		c1-294-122-436-469-540c-49-15-91-32-93-39c-12-35,137-41,248-10c222,61,399,228,441,417c25,107-32,364-144,663
		c-68,178-173,504-227,704c-23,83-45,164-49,180C11364,8689,11361,8692,11355,8678z"/>
	<path class="st0" d="M9384,7116c-57-25-52-65,11-92c17-7,114-22,215-34c198-22,255-38,408-112c120-57,214-87,319-100
		c129-17,224-2,430,67c157,52,177,56,308,65c77,5,165,12,195,15c60,6,146,40,154,61c8,20-32,53-72,60c-86,16-161-3-480-126
		c-186-71-266-90-407-97c-102-5-133-2-204,15c-91,24-243,94-360,167c-40,26-101,57-135,70C9631,7126,9451,7145,9384,7116z"/>
	<path class="st0" d="M9740,5563c-13-3-58-19-100-35c-41-17-153-56-249-87c-174-57-218-81-146-81c55,0,272,46,379,80
		c150,48,178,51,353,35c290-27,425-29,581-10c186,22,251,13,467-64c135-49,204-71,328-107c9-3,17-1,17,4s-42,24-92,42
		c-51,18-167,61-258,95c-91,35-190,68-220,74c-32,6-157,10-300,9c-221-2-262,1-422,25C9916,5568,9803,5574,9740,5563z"/>
	<path class="st0" d="M9780,5293c-25-1-110-9-190-17s-227-18-328-21c-278-9-673-62-705-94c-26-26,11-32,179-27
		c678,18,958,27,1080,35c225,14,696-8,1024-49c85-10,184-22,220-25s131-12,212-20c168-17,589-20,700-5c40,5,99,12,131,15
		c37,4,57,11,57,19c0,16-84,26-210,26c-131,0-322,17-550,50c-612,88-999,121-1360,118C9922,5297,9805,5295,9780,5293z"/>
	<path class="st0" d="M10185,4299c-145-8-269-30-300-53c-18-13-18-14,4-25c18-10,42-10,112,0c182,25,644-1,817-45
		c121-32,209-21,150,18c-40,26-245,76-398,96C10416,4311,10402,4311,10185,4299z"/>
</g>
</svg>
