<?xml version="1.0" encoding="utf-8"?>
<!-- Generator: Adobe Illustrator 22.0.0, SVG Export Plug-In . SVG Version: 6.00 Build 0)  -->
<svg version="1.1" id="Camada_1" xmlns="http://www.w3.org/2000/svg" xmlns:xlink="http://www.w3.org/1999/xlink" x="0px" y="0px"
	 viewBox="0 0 710 710" style="enable-background:new 0 0 710 710;" xml:space="preserve">
<style type="text/css">
	.st0{fill:#76787A;stroke:#292929;stroke-width:10;stroke-miterlimit:10;}
	.st1{fill:#FFFFFF;stroke:#292929;stroke-width:9;stroke-miterlimit:10;}
</style>
<path class="st0" d="M105,5h500c55,0,100,45,100,100v500c0,55-45,100-100,100H105C50,705,5,660,5,605V105C5,50,50,5,105,5z"/>
<g>
	<path class="st1" d="M642.5,355c0-40-47.5-72.5-117.5-95c17.5-72.5,10-130-22.5-147.5c-10-5-17.5-7.5-27.5-7.5
		c-32.5,0-72.5,22.5-112.5,62.5c-42.5-40-82.5-62.5-115-62.5c-10,0-20,2.5-27.5,7.5c-32.5,17.5-40,75-22.5,147.5
		C127.5,282.5,80,315,80,355s47.5,72.5,117.5,95C180,522.5,185,580,220,600c7.5,5,17.5,7.5,27.5,7.5C280,607.5,320,585,360,545
		c40,40,82.5,62.5,112.5,62.5c10,0,20-2.5,27.5-7.5c32.5-20,40-77.5,22.5-150C595,427.5,642.5,392.5,642.5,355z M475,132.5
		c5,0,10,0,12.5,2.5c15,10,22.5,42.5,17.5,85c-2.5,10-2.5,22.5-5,32.5c-22.5-5-47.5-10-72.5-12.5c-15-20-30-40-45-55
		C417.5,150,452.5,132.5,475,132.5z M437.5,400c-7.5,15-17.5,27.5-25,42.5c-17.5,0-32.5,2.5-50,2.5c-17.5,0-35,0-50-2.5
		c-10-12.5-17.5-27.5-25-42.5c-7.5-15-15-30-22.5-45c7.5-15,15-30,22.5-45s17.5-30,27.5-42.5c15,0,32.5-2.5,50-2.5
		c17.5,0,32.5,0,50,2.5c10,12.5,17.5,27.5,27.5,42.5c7.5,15,15,30,22.5,45C455,370,445,385,437.5,400z M475,387.5
		c5,15,10,27.5,15,42.5c-15,2.5-30,5-45,7.5c5-7.5,10-15,15-25C465,405,470,395,475,387.5L475,387.5z M360,505c-10-10-20-22.5-30-35
		c10,0,20,0,30,0s20,0,30,0C380,482.5,370,495,360,505z M275,437.5c-15-2.5-30-5-45-7.5c5-15,10-27.5,15-42.5c5,7.5,10,17.5,15,25
		C265,422.5,270,430,275,437.5L275,437.5z M247.5,322.5c-5-15-10-30-15-42.5c15-2.5,30-5,45-7.5c-5,7.5-10,17.5-15,25
		C255,305,250,315,247.5,322.5z M360,205c10,10,20,22.5,30,35c-10,0-20,0-30,0c-10,0-20,0-30,0C340,227.5,350,215,360,205z
		 M460,297.5c-5-10-10-17.5-15-25c15,2.5,30,5,45,7.5c-5,15-10,30-15,42.5C470,315,465,305,460,297.5z M217.5,220
		c-5-42.5,0-75,17.5-85c2.5-2.5,7.5-2.5,12.5-2.5c22.5,0,57.5,17.5,95,55c-15,17.5-30,35-45,55c-25,2.5-50,7.5-72.5,12.5
		C220,242.5,217.5,230,217.5,220z M172.5,410c-40-17.5-65-37.5-65-57.5c0-17.5,25-40,65-57.5c10-5,20-7.5,32.5-10
		c7.5,22.5,15,45,25,67.5c-10,22.5-20,45-25,67.5C192.5,420,182.5,415,172.5,410L172.5,410z M235,575c-15-10-22.5-42.5-17.5-85
		c2.5-10,2.5-22.5,7.5-35c22.5,5,45,10,70,12.5c15,20,30,40,47.5,57.5c-37.5,35-72.5,55-95,55C242.5,577.5,237.5,577.5,235,575
		L235,575z M505,490c5,42.5,0,75-17.5,85c-2.5,2.5-7.5,2.5-12.5,2.5c-22.5,0-57.5-17.5-95-55c15-17.5,32.5-35,47.5-57.5
		c25-2.5,50-5,70-12.5C500,467.5,502.5,480,505,490L505,490z M550,410c-10,5-20,7.5-32.5,12.5c-7.5-22.5-15-45-25-67.5
		c10-22.5,20-47.5,25-67.5c12.5,2.5,22.5,7.5,32.5,10c40,17.5,65,37.5,65,57.5C615,372.5,590,395,550,410L550,410z"/>
	<path class="st1" d="M362.5,407.5c30,0,52.5-22.5,52.5-52.5s-22.5-52.5-52.5-52.5c-30,0-52.5,22.5-52.5,52.5
		S332.5,407.5,362.5,407.5z"/>
</g>
</svg>
