<?xml version="1.0" encoding="utf-8"?>
<!-- Generator: Adobe Illustrator 22.0.0, SVG Export Plug-In . SVG Version: 6.00 Build 0)  -->
<svg version="1.1" id="Слой_1" xmlns="http://www.w3.org/2000/svg" xmlns:xlink="http://www.w3.org/1999/xlink" x="0px" y="0px"
	 viewBox="0 0 1000 1000" style="enable-background:new 0 0 1000 1000;" xml:space="preserve">
<style type="text/css">
	.st0{fill:#F7C90D;stroke:#292929;stroke-width:40;stroke-miterlimit:10;}
	.st1{fill:#292929;}
</style>
<path class="st0" d="M499.5,944.8c-118.7,0-230.3-46.2-314.2-130.1C101.4,730.8,55.2,619.2,55.2,500.5
	c0-118.7,46.2-230.3,130.2-314.2c83.9-83.9,195.5-130.1,314.2-130.1c118.7,0,230.3,46.2,314.2,130.1
	c83.9,83.9,130.1,195.5,130.1,314.2c0,118.7-46.2,230.3-130.1,314.2C729.8,898.6,618.2,944.8,499.5,944.8z"/>
<path class="st1" d="M499.7,437.3c34.4,0,62.3,27.9,62.3,62.3c0,34.4-27.9,62.3-62.3,62.3c-34.2,0-62-27.5-62.3-61.7
	C437.2,465.7,465.1,437.5,499.7,437.3C499.7,437.3,499.7,437.3,499.7,437.3 M345.4,767c21,12.7,66.7-6.7,120-56.7
	c-17.8-20.3-34.6-41.4-50.3-63.3c-26.9-3-53.6-7.5-80-13.3C318,705,324.4,754,345.4,767 M369,575.6l-9.7-17
	c-3.8,9.4-7,18.9-9.7,28.7c9,2,19,3.7,29.3,5.3L369,575.6 M587,550.3l27-50l-27-50c-10-17.7-20.7-33.3-30.3-49c-18-1-37-1-57-1
	s-39,0-57,0c-9.7,15.7-20.3,31.3-30.3,49l-27,51l27,50c10,17.7,20.7,33.3,30.3,49c18,0,37,0,57,0s39,0,57,0
	C566.4,583.6,577,568,587,550.3 M499.7,326.3c-6.3,7.3-13,15-19.7,24h39.3C512.7,341.3,506,333.6,499.7,326.3 M499.7,674.3
	c6.3-7.3,13-15,19.7-24H480C486.7,659.3,493.4,667,499.7,674.3 M653.7,233.6C633,221,587,240.3,534,290.3
	c17.8,20.3,34.6,41.4,50.3,63.3c26.9,2.6,53.6,6.6,80,12c17-71.3,10.7-120.3-10.7-133.3 M630.4,423.6l9.7,17
	c3.8-9.4,7-18.9,9.7-28.7c-9-2-19-3.7-29.3-5.3L630.4,423.6 M678.7,190.3c49,28,54.3,101.7,33.3,187.7
	c84.7,25,145.7,66.7,145.7,122.7s-61,97.7-145.7,122.7c20.7,86,15.3,159.7-33.3,187.7s-115-4-179-65c-64,61-130.3,93-179.3,65
	s-54-100-33.3-187.7c-84.7-25-145.7-66.7-145.7-122.7s61-98,145.7-123c-20.7-86-15.3-159.7,33.3-187.7s115.3,4,179.3,65
	c64-61,130.3-93,179-65 M669,500.3c11.6,24.5,21.8,49.7,30.7,75.3c70-21,109.3-51,109.3-75.3S768.7,446,699.7,425
	C690.9,450.6,680.6,475.8,669,500.3 M330.4,500.3c-11.6-24.5-21.8-49.7-30.7-75.3c-70,21-109.3,51-109.3,75.3s40.3,54.3,109.3,75.3
	C308.6,550,318.8,524.9,330.4,500.3 M630.4,575.6l-10,17c10.3,0,20.3-3.3,29.3-5.3c-2.7-9.7-5.9-19.3-9.7-28.7L630.4,575.6
	 M533,710.3c53,50,100,69.3,119.7,56.7c19.7-12.7,27.7-60.7,10.7-133.3c-26.4,5.4-53.1,9.4-80,12C567.7,668,550.9,689.6,533,710.3
	 M369,425l10-17c-10.3,0-20.3,3.3-29.3,5.3c2.7,9.7,5.9,19.3,9.7,28.7L369,425 M466.4,290.3c-54-50-100-69.3-121-56.7
	S318,294.3,335,367c26.4-5.4,53.1-9.4,80-12C431,332.6,448.2,311,466.4,290.3z"/>
</svg>
