<?xml version="1.0" encoding="utf-8"?>
<!-- Generator: Adobe Illustrator 22.0.0, SVG Export Plug-In . SVG Version: 6.00 Build 0)  -->
<svg version="1.1" id="Слой_1" xmlns="http://www.w3.org/2000/svg" xmlns:xlink="http://www.w3.org/1999/xlink" x="0px" y="0px"
	 viewBox="0 0 1000 1000" style="enable-background:new 0 0 1000 1000;" xml:space="preserve">
<style type="text/css">
	.st0{fill:#F7C90D;stroke:#292929;stroke-width:40;stroke-miterlimit:10;}
	.st1{fill:#292929;}
</style>
<path class="st0" d="M499.5,944.8c-118.7,0-230.3-46.2-314.2-130.1S55.2,619.2,55.2,500.5s46.2-230.3,130.2-314.2
	c83.9-83.9,195.5-130.1,314.2-130.1s230.3,46.2,314.2,130.1s130.1,195.5,130.1,314.2s-46.2,230.3-130.1,314.2
	C729.8,898.6,618.2,944.8,499.5,944.8z"/>
<path class="st1" d="M434.3,776c-10.7,0-21.3-4.3-28.8-11.7c-10.7-10.7-14.9-25.6-10.7-40.5l14.9-51.2c3.2-11.7,0-23.5-8.5-30.9l0,0
	l-44.8-44.8c-8.5-8.5-20.3-11.7-32-8.5l-51.2,14.9c-13.9,4.3-29.9,0-40.5-10.7c-13.9-13.9-16-36.3-4.3-52.2l56.5-83.2
	c16-22.4,41.6-36.3,69.3-36.3c1.1,0,2.1,0,3.2,0l52.2,7.5c182.3-223.9,323.1-187.7,329.5-186.6c7.5,2.1,13.9,8.5,16,16
	c2.1,6.4,37.3,147.1-186.6,329.5l7.5,52.2c0,1.1,0,2.1,0,3.2c0,27.7-12.8,53.3-36.3,69.3l-82.1,56.5
	C450.3,772.8,442.8,776,434.3,776L434.3,776z M432.1,608.6c20.3,19.2,27.7,48,20.3,75.7L440.7,727l73.6-51.2
	c10.7-7.5,17.1-19.2,17.1-30.9l-8.5-62.9c-1.1-7.5,2.1-16,8.5-20.3c170.6-135.4,184.5-239.9,183.4-277.2c-1.1,0-1.1,0-2.1,0
	c-39.5,0-144,18.1-275.1,183.4c-5.3,6.4-12.8,9.6-20.3,8.5l-62.9-8.5c-12.8,0-24.5,6.4-30.9,17.1l-51.2,73.6l42.7-11.7
	c26.7-7.5,55.4,0,75.7,20.3L432.1,608.6L432.1,608.6z M641.1,377.2c0,12.4-10,22.4-22.4,22.4s-22.4-10-22.4-22.4s10-22.4,22.4-22.4
	S641.1,364.8,641.1,377.2z"/>
</svg>
