<?xml version="1.0" encoding="utf-8"?>
<!-- Generator: Adobe Illustrator 22.0.0, SVG Export Plug-In . SVG Version: 6.00 Build 0)  -->
<svg version="1.1" id="_x32_" xmlns="http://www.w3.org/2000/svg" xmlns:xlink="http://www.w3.org/1999/xlink" x="0px" y="0px"
	 viewBox="0 0 810.7 810.5" style="enable-background:new 0 0 810.7 810.5;" xml:space="preserve">
<style type="text/css">
	.st0{fill:#E44041;stroke:#292929;stroke-width:10;stroke-miterlimit:10;}
	.st1{fill:#FFFFFF;stroke:#292929;stroke-width:10;stroke-miterlimit:10;}
</style>
<path class="st0" d="M787.5,23.2c-13.6-13.6-32.9-19.9-52-17L613,25.3c-51.3,8-98.7,32.1-135.4,68.8L372.1,199.6l-37.7,37.7
	l-43.8,43.8l-21.8-21.8l33.9-33.8L232.2,199c-33.4-12.5-71-4.4-96.3,20.8L15.4,340.3c-8.7,8.7-12.2,21.3-9.2,33.2
	c2.9,11.9,11.9,21.4,23.6,25L157.7,438l214.9,215l39.6,127.9c3.6,11.7,13.1,20.7,25,23.6c11.9,3,24.5-0.5,33.1-9.2l120.5-120.5
	c25.2-25.2,33.4-62.8,20.9-96.3L585.3,508l-33.9,33.8L529.6,520l43.8-43.8l37.7-37.7l105.5-105.5c36.7-36.7,60.8-84.1,68.8-135.4
	l19.1-122.5C807.4,56.1,801.1,36.8,787.5,23.2z"/>
<path class="st1" d="M646.7,292.5c-35,35-91.6,35-126.6,0c-35-34.9-35-91.6,0-126.6c35-35,91.6-34.9,126.6,0
	C681.7,200.9,681.7,257.5,646.7,292.5z"/>
</svg>
