<?xml version="1.0" encoding="utf-8"?>
<!-- Generator: Adobe Illustrator 22.0.0, SVG Export Plug-In . SVG Version: 6.00 Build 0)  -->
<svg version="1.1" id="Слой_1" xmlns="http://www.w3.org/2000/svg" xmlns:xlink="http://www.w3.org/1999/xlink" x="0px" y="0px"
	 viewBox="0 0 808.6 808.5" style="enable-background:new 0 0 808.6 808.5;" xml:space="preserve">
<style type="text/css">
	.st0{fill:#66C8CF;stroke:#292929;stroke-width:10;stroke-miterlimit:10;}
</style>
<path class="st0" d="M5.1,404.3c0,158,91.8,294.6,225,359.3L39.7,241.8C17.5,291.5,5.1,346.4,5.1,404.3z M673.8,384
	c0-49.4-17.7-83.5-32.9-110.1c-20.2-32.9-39.2-60.7-39.2-93.6c0-36.7,27.8-70.9,67-70.9c1.8,0,3.5,0.2,5.2,0.3
	c-71-65-165.7-104.7-269.6-104.7c-139.5,0-262.2,71.6-333.5,179.9c9.4,0.3,18.2,0.5,25.7,0.5c41.8,0,106.4-5.1,106.4-5.1
	c21.5-1.3,24.1,30.3,2.6,32.9c0,0-21.6,2.5-45.7,3.8l145.4,432.4l87.3-262l-62.2-170.4c-21.5-1.2-41.9-3.8-41.9-3.8
	c-21.5-1.3-19-34.2,2.5-32.9c0,0,65.9,5.1,105.1,5.1c41.7,0,106.4-5.1,106.4-5.1c21.5-1.3,24.1,30.3,2.5,32.9c0,0-21.7,2.5-45.7,3.8
	l144.3,429.1l39.8-133C663.7,461.3,673.8,418.3,673.8,384z M411.3,439.1L291.5,787.3c35.8,10.5,73.6,16.3,112.8,16.3
	c46.5,0,91.1-8,132.6-22.6c-1.1-1.7-2-3.5-2.8-5.5L411.3,439.1z M754.6,212.8c1.7,12.7,2.7,26.4,2.7,41c0,40.5-7.6,86.1-30.4,143
	L605,749.3c118.7-69.2,198.5-197.8,198.5-345C803.5,334.9,785.8,269.5,754.6,212.8z"/>
</svg>
