<?xml version="1.0" encoding="utf-8"?>
<!-- Generator: Adobe Illustrator 22.0.0, SVG Export Plug-In . SVG Version: 6.00 Build 0)  -->
<svg version="1.1" id="Слой_1" xmlns="http://www.w3.org/2000/svg" xmlns:xlink="http://www.w3.org/1999/xlink" x="0px" y="0px"
	 viewBox="0 0 1000 1000" style="enable-background:new 0 0 1000 1000;" xml:space="preserve">
<style type="text/css">
	.st0{fill:#F7C90D;stroke:#292929;stroke-width:40;stroke-miterlimit:10;}
	.st1{fill:#292929;}
</style>
<path class="st0" d="M499.2,945.1C380.6,945.1,269,898.9,185,815C101.1,731.1,54.9,619.5,54.9,500.8c0-118.7,46.2-230.3,130.2-314.2
	C269,102.7,380.6,56.4,499.2,56.4c118.7,0,230.3,46.2,314.2,130.1c83.9,83.9,130.1,195.5,130.1,314.2
	c0,118.7-46.2,230.3-130.1,314.2C729.5,898.9,617.9,945.1,499.2,945.1z"/>
<g>
	<path class="st1" d="M899.2,500.8c0-220.4-179.6-400-400-400c-220.8,0-400,179.6-400,400c0,220.8,179.2,400,400,400
		C719.6,900.8,899.2,721.6,899.2,500.8z M410.4,715.6L274,349.6c22-0.8,46.8-3.2,46.8-3.2c20-2.4,17.6-45.2-2.4-44.4
		c0,0-58,4.4-94.8,4.4c-7.2,0-14.8,0-23.2-0.4C264,208.4,374,145.2,499.2,145.2c93.2,0,178,34.8,242,93.6c-27.2-4.4-66,15.6-66,63.2
		c0,29.6,18,54.4,36,84c14,24.4,22,54.4,22,98.4c0,59.6-56,200-56,200L556,349.6c21.6-0.8,32.8-6.8,32.8-6.8c20-2,17.6-50-2.4-48.8
		c0,0-57.6,4.8-95.2,4.8c-34.8,0-93.2-4.8-93.2-4.8c-20-1.2-22.4,48-2.4,48.8l36.8,3.2l50.4,136.4L410.4,715.6z M795.6,500.8
		c9.6-25.6,29.6-74.8,17.2-170c28,51.6,42,108.4,42,170c0,131.6-69.2,249.6-176,311.2C717.6,708.4,756.4,604,795.6,500.8z
		 M343.2,824.4C224,766.8,143.6,642,143.6,500.8c0-52,9.2-99.2,28.8-143.6C229.2,512.8,286,668.8,343.2,824.4z M504.4,559.2
		l103.2,279.2c-34.4,11.6-70.4,18-108.4,18c-31.6,0-62.8-4.4-91.6-13.2C440,748,472.4,653.6,504.4,559.2L504.4,559.2z"/>
</g>
</svg>
