<svg xmlns="http://www.w3.org/2000/svg" xml:space="preserve" style="enable-background:new 0 0 1000 1000" viewBox="0 0 1000 1000"><path d="M536.4 159.4c-3.5 9.4-10.7 16.2-21.6 20.1L145.1 333c-8.9 3-18.1 2.7-27.6-.7s-16.6-10.2-21.6-20.1c-3-8.9-2.5-18.4 1.5-28.3 4-9.9 10.9-16.9 20.9-20.9L488 111c9.9-4 19.6-4 29.1 0 9.4 4 15.6 10.4 18.6 19.4 3.9 9.9 4.2 19.5.7 29zm-.8 307.8c-3 9-9.2 15.4-18.6 19.4-9.4 4-19.2 4-29.1 0l-369.7-152c-9.9-4-16.9-10.9-20.9-20.9-4-9.9-4.5-19.4-1.5-28.3 5-9.9 12.2-16.6 21.6-20.1s18.6-3.7 27.6-.8L514.8 418c10.9 4 18.1 10.7 21.6 20.1 3.5 9.5 3.2 19.2-.8 29.1zm-366.4-164v402.5c0 9.9-3.5 18.7-10.5 26.1-7 7.5-16 11.2-26.9 11.2-10 0-18.7-3.7-26.2-11.2-7.5-7.4-11.2-16.1-11.2-26.1V303.2c0-10.9 3.7-19.8 11.2-26.8 7.5-7 16.2-10.4 26.2-10.4 11 0 19.9 3.5 26.9 10.4 7 7 10.5 15.9 10.5 26.8zm372.5 149.1v402.5c0 9.9-3.5 18.7-10.5 26.1-7 7.5-16 11.2-26.9 11.2-10 0-18.7-3.7-26.2-11.2-7.5-7.4-11.2-16.1-11.2-26.1V452.3c0-10.9 3.7-19.8 11.2-26.8 7.5-7 16.2-10.4 26.2-10.4 11 0 19.9 3.5 26.9 10.4 6.9 7 10.5 15.9 10.5 26.8zm-69.4-14.1c3.5-9.4 10.7-16.1 21.6-20.1l369.7-153.5c8.9-3 18.1-2.7 27.6.8s16.6 10.2 21.6 20.1c3 9 2.5 18.4-1.5 28.3-4 9.9-10.9 16.9-20.9 20.9l-369.7 152c-9.9 4-19.6 4-29.1 0-9.4-4-15.6-10.4-18.6-19.4-3.9-10-4.2-19.7-.7-29.1zm0 408.4c3.5-9.4 10.7-16.1 21.6-20.1L863.6 673c8.9-3 18.1-2.7 27.6.8 9.4 3.5 16.6 10.2 21.6 20.1 3 9 2.5 18.4-1.5 28.3-4 9.9-10.9 16.9-20.9 20.9L520.7 895c-9.9 4-19.6 4-29.1 0-9.4-4-15.6-10.4-18.6-19.4-3.9-9.9-4.2-19.6-.7-29z" style="fill:#F7C90D;stroke:#F7C90D;stroke-width:150;stroke-miterlimit:10"/></svg>
