<svg xmlns="http://www.w3.org/2000/svg" xmlns:xlink="http://www.w3.org/1999/xlink" xml:space="preserve" style="enable-background:new 0 0 829.8 839.3" viewBox="0 0 829.8 839.3"><path d="M779.8 706.4c-.4-2.6-.2-4.6-1-7-.8-2.3-1.3-4.8-2-7-.8-2.4-1.2-4.7-2-7-3.5-10.4-12.3-19-19-28-7-9.4-14.8-18.9-22-28-15.1-19.1-30.8-37.4-45.5-56.5-7.4-9.6-15.1-19.2-22.5-28.5-3.9-5-8-9-12-14-3.3-4.1-7.3-8.8-10-13.5h-1c-7.3-11.3-16.6-20.8-25-31.5-14.6-18.5-29.4-37.5-44-56-7.6-9.7-15-18.2-25-26-8.3-6.4-18.3-8.9-28-12.5h-6c-2.3-.9-4.1-.8-3.5-3 .5-1.9 4.3-4 5.5-5.5 2.6-3.3 5.8-6.8 9-10l10.5-10.5c3.1-3.1 7.4-6.2 9.5-10h1c1.8-3.1 4.8-6 7-8.5 2.5-2.8 5.4-5.4 8-8l16.5-16.5c10.8-10.8 21-22 32-33 19.4-19.4 38.1-40.1 57.5-59.5 9.6-9.6 18.7-19.7 28-29s16.2-18.5 20-30c1.6-4.8 3.1-9.3 4-14.5.8-4.8 1-9.7 1-15 0-4.9-.5-10.1-2-14.5-1.7-5-2.7-10.3-5-15-5.3-10.8-13.3-20.1-23.5-28.3-8.7-6.9-19.2-9.4-29.5-13.3h-6v-1h-71v1h-6c-12.1 4.6-23.3 8.1-33.5 16.3-11.9 9.4-21.6 22.3-32 32.8-39.2 39.2-76.4 79.4-115.5 118.5-19.2 19.2-37.7 39.7-57 59-9.9 9.9-18.7 19.7-28.5 29.5l-14.5 14.5c-4.8 4.8-8.3 10.6-14 14.5h-1c-2.7-2.8-1-12.6-1-16.5V137.9c0-11.2-2.7-20.2-7-29.5-5-10.8-12.1-19.9-22.5-27.5-4.6-3.3-9.2-6.6-14.5-8.8-4.9-2-10-3.3-15-5.2h-6v-1h-66v1h-6c-5.7 2.1-11.5 3.6-17 6-6.1 2.7-11.4 6.7-16.5 10.8-5.9 4.7-9.4 10.1-13.5 15.8-3.5 4.9-7.1 10.7-8.5 16.5-1.2 4.9-2.8 9.9-3.5 15-.7 4.6 0 9.8 0 14.5v556c0 8.3-1.3 17.8 0 26 .1.7.8 2.5 1 3.5.3 1.2.6 1.9 1 3 .7 2.1 1.3 4.4 2 6.5.7 2.2 1.1 4.4 2 6.5 1 2.5 2.7 4.1 4 6.5 5.1 9.4 12.6 17.4 22 24 8 5.6 17 8.1 26 11.5h5v1h70v-1h5c10.6-4 20.6-7.2 29.5-14.3 10-7.9 17.6-17.5 22.5-28.3 3.5-7.7 6-16.9 6-26v-156c0-5.9-2.7-22.7 3-25.5h57v-1h6c6.6-2.5 13.8-3.7 20-7 3.5-1.9 6.8-4.3 10-6.5 2.9-2 7.2-4.4 9-7.5h4c3.2 5.6 8 10.5 12 15.5 4.3 5.4 8.8 10.5 13 16 8.1 10.6 16.6 21 25 31.5 7.6 9.6 15.5 18.8 23 28.5 7.2 9.3 14.9 18.5 22 28 14.3 19.2 30.3 37 45 56 14.7 18.9 29.8 37.7 44.5 56.5 7.6 9.7 15.2 19.3 25.5 27 8.5 6.4 18.1 9.3 28 13h5v1h84v-1h5c5.3-2 10.8-3.3 16-5.5 5.8-2.4 11.2-6.6 16-10.5 10.7-8.7 17-19.6 22-31 1-2.4 1.2-5 2-7.5.6-1.9 1.7-4.6 2-6.5.8-4.9 1-9.3 1-14.5 0-2.8-.7-4.5-1-7z"/><path d="M152.3 97h46.8c20.4 0 36.9 16.5 36.9 36.9v216.9c0 33.1 40.3 49.4 63.3 25.7l260.2-268.2C566.4 101.1 576 97 586 97h52.7c32.6 0 49.2 39.2 26.4 62.6L471.8 358.4c-22.7 23.4-6.2 62.6 26.4 62.6 11.2 0 21.8 5.1 28.8 13.8l200.2 250.3c19.3 24.1 2.1 59.9-28.8 59.9h-61.1c-11.2 0-21.8-5.1-28.8-13.9L409.8 482.2c-13.9-17.4-39.8-18.6-55.3-2.7l-2.8 2.8c-6.9 7.2-16.5 11.2-26.5 11.2h-52.5c-20.4 0-36.9 16.5-36.9 36.9v177.7c0 20.4-16.5 36.9-36.9 36.9h-46.8c-20.4 0-36.9-16.5-36.9-36.9V133.9c.3-20.4 16.8-36.9 37.1-36.9z" style="stroke:#000;stroke-width:50;stroke-miterlimit:10"/><image xlink:href="A1F761C.png" width="701" height="729" style="overflow:visible;opacity:.75" transform="translate(61.787 43.869)"/><path d="M132.3 77h46.8c20.4 0 36.9 16.5 36.9 36.9v216.9c0 33.1 40.3 49.4 63.3 25.7L539.5 88.2C546.4 81.1 556 77 566 77h52.7c32.6 0 49.2 39.2 26.4 62.6L451.8 338.4c-22.7 23.4-6.2 62.6 26.4 62.6 11.2 0 21.8 5.1 28.8 13.8l200.2 250.3c19.3 24.1 2.1 59.9-28.8 59.9h-61.1c-11.2 0-21.8-5.1-28.8-13.9L389.8 462.2c-13.9-17.4-39.8-18.6-55.3-2.7l-2.8 2.8c-6.9 7.2-16.5 11.2-26.5 11.2h-52.5c-20.4 0-36.9 16.5-36.9 36.9v177.7c0 20.4-16.5 36.9-36.9 36.9h-46.8c-20.4 0-36.9-16.5-36.9-36.9V113.9C95.5 93.5 112 77 132.3 77z" style="fill:#e44041;stroke:#e44041;stroke-width:50;stroke-miterlimit:10"/></svg>